<?xml version="1.0" encoding="UTF-8" standalone="no"?>
<!-- Created with Inkscape (http://www.inkscape.org/) -->

<svg
   xmlns:dc="http://purl.org/dc/elements/1.1/"
   xmlns:cc="http://creativecommons.org/ns#"
   xmlns:rdf="http://www.w3.org/1999/02/22-rdf-syntax-ns#"
   xmlns:svg="http://www.w3.org/2000/svg"
   xmlns="http://www.w3.org/2000/svg"
   xmlns:sodipodi="http://sodipodi.sourceforge.net/DTD/sodipodi-0.dtd"
   xmlns:inkscape="http://www.inkscape.org/namespaces/inkscape"
   width="343pt"
   height="340pt"
   id="svg3206"
   version="1.1"
   inkscape:version="0.48.2 r9819"
   sodipodi:docname="New document 1">
  <defs
     id="defs3208" />
  <sodipodi:namedview
     pagecolor="#ffffff"
     bordercolor="#666666"
     borderopacity="1.0"
     inkscape:pageopacity="0.0"
     inkscape:pageshadow="2"
     inkscape:zoom="0.2"
     inkscape:cx="210"
     inkscape:cy="476.91774"
     inkscape:document-units="pt"
     inkscape:current-layer="layer1"
     id="namedview3210"
     showgrid="false"
     inkscape:window-width="469"
     inkscape:window-height="425"
     inkscape:window-x="538"
     inkscape:window-y="207"
     inkscape:window-maximized="1" />
  <metadata
     id="metadata3212">
    <rdf:RDF>
      <cc:Work
         rdf:about="">
        <dc:format>image/svg+xml</dc:format>
        <dc:type
           rdf:resource="http://purl.org/dc/dcmitype/StillImage" />
        <dc:title></dc:title>
      </cc:Work>
    </rdf:RDF>
  </metadata>
  <g
     inkscape:label="Layer 1"
     inkscape:groupmode="layer"
     id="layer1">
    <g
       id="g3357"
       transform="matrix(1.7319427,0,0,1.7319427,1683.3415,-617.90677)">
      <path
         inkscape:connector-curvature="0"
         id="path4263"
         d="m -212.25272,725.68701 c 1.23085,5.2635 3.20287,22.63376 3.20287,22.63376 l 23.35845,6.04558 -1.96143,18.42438 -20.65056,5.53411 -12.29796,-16.84037 -9.59009,-5.26066 -10.81696,2.89883 3.43713,-16.58251 -1.2335,-14.21216 z"
         style="fill:#8a916f;stroke:#000000;stroke-width:0.51914734px;stroke-linecap:butt;stroke-linejoin:miter;stroke-opacity:1" />
      <path
         style="fill:#8a916f;stroke:#000000;stroke-width:0.52675593px;stroke-linecap:butt;stroke-linejoin:miter;stroke-opacity:1"
         d="m -306.48294,729.32214 c -1.2672,5.2635 -3.29744,22.63376 -3.29744,22.63376 l -24.04815,6.04558 2.01934,18.42438 21.26031,5.53412 12.66108,-16.84037 9.87325,-5.26066 11.13636,2.89882 -3.53862,-16.5825 1.26992,-14.21216 z"
         id="path4265"
         inkscape:connector-curvature="0" />
    </g>
    <g
       id="g3285"
       transform="matrix(1.7319427,0,0,1.7319427,1613.3235,-1252.0669)">
      <path
         sodipodi:nodetypes="csssssc"
         inkscape:connector-curvature="0"
         id="path3755-5"
         d="m -256.9071,410.00273 c 15.17735,-2.56241 21.68193,-0.19712 26.16614,-11.18591 4.48422,-10.98879 6.94807,-35.33168 6.94807,-42.42758 0,-14.1918 -7.0959,-35.47951 -33.90264,-37.05637 -26.80675,-1.57687 -38.63325,20.49927 -38.63325,35.4795 0,7.49012 3.94217,32.72 9.26409,44.64505 5.32193,11.92506 12.02362,10.5453 30.15759,10.54531 z"
         style="fill:#ffccaa;stroke:none" />
      <path
         sodipodi:nodetypes="cscccccccccccccccccccccccccccccccccccccccccc"
         inkscape:connector-curvature="0"
         id="path3757-8"
         d="m -289.23288,399.55598 c 0,0 -11.43229,-49.47421 -11.03807,-53.02216 0.39422,-3.54795 -1.57686,-9.65831 -1.57686,-9.65831 l 5.12481,-3.35084 -0.19711,-11.43228 6.8988,-0.39422 2.5624,-10.24964 7.68723,1.57687 4.92772,-4.33639 2.95663,5.51904 7.49012,-5.51903 3.54795,5.91325 7.49011,-5.51904 5.71615,4.53349 10.84096,-1.57686 3.15373,7.29301 6.89879,-1.57687 0.98555,7.49012 5.91325,0.78843 -2.95663,5.91325 4.33639,2.95663 -2.16819,5.71614 -1.57687,26.80674 -5.91325,27.39806 -11.23518,0.19711 14.1918,-39.81589 -6.50457,-0.78843 0,-9.46121 -4.92771,-1.57686 0.59132,-5.51904 -11.23518,-0.39422 -10.84096,-4.73059 -2.75951,2.36529 -7.09591,-1.18265 -7.29301,3.54795 -9.2641,-0.39422 -1.18265,3.94217 -5.12482,0.78844 1.37976,7.68722 -2.95662,3.74507 2.75951,10.84095 -2.75951,4.5335 14.38891,28.58071 z"
         style="fill:#241f1c;stroke:none" />
      <path
         transform="matrix(0.5519035,0,0,0.5519035,-251.38806,192.27401)"
         d="m 20,300.21933 c 0,8.28427 -6.875627,15 -15.3571429,15 -8.4815156,0 -15.3571421,-6.71573 -15.3571421,-15 0,-8.28427 6.8756265,-15 15.3571421,-15 8.4815159,0 15.3571429,6.71573 15.3571429,15 z"
         sodipodi:ry="15"
         sodipodi:rx="15.357142"
         sodipodi:cy="300.21933"
         sodipodi:cx="4.6428571"
         id="path3761-6"
         style="fill:#ffffff;fill-opacity:1;stroke:none"
         sodipodi:type="arc" />
      <path
         transform="matrix(0.5519035,0,0,0.5519035,-275.23818,193.85088)"
         d="m 20,300.21933 c 0,8.28427 -6.875627,15 -15.3571429,15 -8.4815156,0 -15.3571421,-6.71573 -15.3571421,-15 0,-8.28427 6.8756265,-15 15.3571421,-15 8.4815159,0 15.3571429,6.71573 15.3571429,15 z"
         sodipodi:ry="15"
         sodipodi:rx="15.357142"
         sodipodi:cy="300.21933"
         sodipodi:cx="4.6428571"
         id="path3761-8-3"
         style="fill:#ffffff;fill-opacity:1;stroke:none"
         sodipodi:type="arc" />
      <path
         inkscape:connector-curvature="0"
         id="path3822-8"
         d="m -284.08973,361.47464 c 0,0 2.97955,-8.67277 13.11001,-8.67277 10.13046,0 10.13046,9.06698 10.13046,9.06698 l 0,-15.76867 c 0,0 -7.15091,-6.30747 -14.59978,-5.12481 -7.44887,1.18265 -11.02432,8.67277 -11.02432,8.67277 z"
         style="fill:#ffccaa;fill-opacity:1;stroke:none" />
      <path
         inkscape:connector-curvature="0"
         id="path3822-0-6"
         d="m -261.52319,358.01129 c 0,0 4.36545,-8.06458 14.35794,-6.39833 9.99248,1.66625 8.50115,10.60974 8.50115,10.60974 l 2.59361,-15.55391 c 0,0 -6.01606,-7.39773 -13.558,-7.45637 -7.54194,-0.0586 -12.30066,6.74138 -12.30066,6.74138 z"
         style="fill:#ffccaa;fill-opacity:1;stroke:none" />
      <path
         transform="matrix(0.44392238,0,0,0.45155741,-289.05153,186.78228)"
         d="m 48.487322,385.15643 c 0,6.13681 -5.200998,11.11168 -11.616755,11.11168 -6.415756,0 -11.616754,-4.97487 -11.616754,-11.11168 0,-6.13681 5.200998,-11.11168 11.616754,-11.11168 6.415757,0 11.616755,4.97487 11.616755,11.11168 z"
         sodipodi:ry="11.111678"
         sodipodi:rx="11.616755"
         sodipodi:cy="385.15643"
         sodipodi:cx="36.870567"
         id="path3842-02"
         style="fill:#aad400;fill-opacity:1;stroke:none"
         sodipodi:type="arc" />
      <path
         transform="matrix(0.25195595,0,0,0.26340849,-282.113,259.38842)"
         d="m 48.487322,385.15643 c 0,6.13681 -5.200998,11.11168 -11.616755,11.11168 -6.415756,0 -11.616754,-4.97487 -11.616754,-11.11168 0,-6.13681 5.200998,-11.11168 11.616754,-11.11168 6.415757,0 11.616755,4.97487 11.616755,11.11168 z"
         sodipodi:ry="11.111678"
         sodipodi:rx="11.616755"
         sodipodi:cy="385.15643"
         sodipodi:cx="36.870567"
         id="path3842-2-6"
         style="fill:#00222b;fill-opacity:1;stroke:none"
         sodipodi:type="arc" />
      <path
         transform="matrix(0.44392238,0,0,0.45155741,-265.21811,185.10976)"
         d="m 48.487322,385.15643 c 0,6.13681 -5.200998,11.11168 -11.616755,11.11168 -6.415756,0 -11.616754,-4.97487 -11.616754,-11.11168 0,-6.13681 5.200998,-11.11168 11.616754,-11.11168 6.415757,0 11.616755,4.97487 11.616755,11.11168 z"
         sodipodi:ry="11.111678"
         sodipodi:rx="11.616755"
         sodipodi:cy="385.15643"
         sodipodi:cx="36.870567"
         id="path3842-0-9"
         style="fill:#aad400;fill-opacity:1;stroke:none"
         sodipodi:type="arc" />
      <path
         transform="matrix(0.25195595,0,0,0.26340849,-258.27958,257.7159)"
         d="m 48.487322,385.15643 c 0,6.13681 -5.200998,11.11168 -11.616755,11.11168 -6.415756,0 -11.616754,-4.97487 -11.616754,-11.11168 0,-6.13681 5.200998,-11.11168 11.616754,-11.11168 6.415757,0 11.616755,4.97487 11.616755,11.11168 z"
         sodipodi:ry="11.111678"
         sodipodi:rx="11.616755"
         sodipodi:cy="385.15643"
         sodipodi:cx="36.870567"
         id="path3842-2-4-0"
         style="fill:#00222b;fill-opacity:1;stroke:none"
         sodipodi:type="arc" />
      <path
         sodipodi:nodetypes="cccc"
         inkscape:connector-curvature="0"
         id="path3902-21"
         d="m -267.41615,346.70666 -9.71976,-1.82511 -8.17737,5.45775 z"
         style="fill:#241f1c;fill-opacity:1;stroke:none" />
      <path
         sodipodi:nodetypes="cccc"
         inkscape:connector-curvature="0"
         id="path3902-2-2"
         d="m -246.7509,345.92183 -10.26634,3.05097 19.9435,1.36373 z"
         style="fill:#241f1c;fill-opacity:1;stroke:none" />
      <path
         sodipodi:nodetypes="cc"
         inkscape:connector-curvature="0"
         id="path3922-1"
         d="m -252.10263,395.04861 c -5.13302,1.18496 -8.56211,1.57918 -13.83041,-0.0392"
         style="fill:#ffccaa;fill-opacity:0;stroke:#d65e52;stroke-width:3.65028977;stroke-linecap:butt;stroke-linejoin:miter;stroke-miterlimit:4;stroke-opacity:1;stroke-dasharray:none" />
      <path
         inkscape:connector-curvature="0"
         id="path4101"
         d="m -300.19336,357.0321 c -0.59132,1.97109 -1.37975,4.92771 0.19711,5.32193 1.57687,0.39422 10.64386,-22.07614 14.58603,-23.06168 3.94216,-0.98554 32.71999,-6.11036 38.23902,-4.53349 5.51904,1.57686 23.85012,11.23517 24.44144,14.1918 0.59133,2.95663 -0.39421,14.58602 0,15.57156 0.39422,0.98554 4.5335,-0.98554 4.5335,-3.15373 0,-2.16819 0.1971,-15.37446 -1.18266,-16.75421 -1.37975,-1.37976 -26.60963,-15.17734 -28.97493,-15.57156 -2.3653,-0.39422 -16.35999,1.37975 -19.11951,1.37975 -2.75952,0 -23.85012,5.71615 -25.03277,7.68723 -1.18265,1.97108 -7.68723,18.9224 -7.68723,18.9224 z"
         style="fill:#808080;fill-opacity:1;stroke:none" />
      <path
         transform="matrix(-0.71611554,-0.21590643,-0.24288745,0.98453331,33.1609,165.49662)"
         d="m 325.00001,237.71933 c 0,4.93111 -8.63451,8.92857 -19.28572,8.92857 -10.6512,0 -19.28571,-3.99746 -19.28571,-8.92857 0,-4.93111 8.63451,-8.92857 19.28571,-8.92857 10.65121,0 19.28572,3.99746 19.28572,8.92857 z"
         sodipodi:ry="8.9285717"
         sodipodi:rx="19.285715"
         sodipodi:cy="237.71933"
         sodipodi:cx="305.71429"
         id="path3981"
         style="fill:#808080;fill-opacity:1;stroke:none"
         sodipodi:type="arc" />
      <path
         sodipodi:type="arc"
         style="fill:#808080;fill-opacity:1;stroke:none"
         id="path4093"
         sodipodi:cx="305.71429"
         sodipodi:cy="237.71933"
         sodipodi:rx="19.285715"
         sodipodi:ry="8.9285717"
         d="m 325.00001,237.71933 c 0,4.93111 -8.63451,8.92857 -19.28572,8.92857 -10.6512,0 -19.28571,-3.99746 -19.28571,-8.92857 0,-4.93111 8.63451,-8.92857 19.28571,-8.92857 10.65121,0 19.28572,3.99746 19.28572,8.92857 z"
         transform="matrix(0.72906955,-0.21590643,0.24728111,0.98453331,-555.6967,165.97618)" />
      <path
         sodipodi:type="arc"
         style="fill:#454837;fill-opacity:1;stroke:none"
         id="path4097"
         sodipodi:cx="305.71429"
         sodipodi:cy="237.71933"
         sodipodi:rx="19.285715"
         sodipodi:ry="8.9285717"
         d="m 325.00001,237.71933 c 0,4.93111 -8.63451,8.92857 -19.28572,8.92857 -10.6512,0 -19.28571,-3.99746 -19.28571,-8.92857 0,-4.93111 8.63451,-8.92857 19.28571,-8.92857 10.65121,0 19.28572,3.99746 19.28572,8.92857 z"
         transform="matrix(-0.57504697,-0.16275445,-0.19504072,0.74216031,-20.950865,206.83424)" />
      <path
         transform="matrix(0.56887762,-0.17591058,0.2242435,0.68346455,-501.48077,225.25001)"
         d="m 325.00001,237.71933 c 0,4.93111 -8.63451,8.92857 -19.28572,8.92857 -10.6512,0 -19.28571,-3.99746 -19.28571,-8.92857 0,-4.93111 8.63451,-8.92857 19.28571,-8.92857 10.65121,0 19.28572,3.99746 19.28572,8.92857 z"
         sodipodi:ry="8.9285717"
         sodipodi:rx="19.285715"
         sodipodi:cy="237.71933"
         sodipodi:cx="305.71429"
         id="path4099"
         style="fill:#454837;fill-opacity:1;stroke:none"
         sodipodi:type="arc" />
      <path
         sodipodi:type="arc"
         style="opacity:0.32758627;fill:#b7c8be;fill-opacity:1;stroke:none"
         id="path4095"
         sodipodi:cx="305.71429"
         sodipodi:cy="237.71933"
         sodipodi:rx="19.285715"
         sodipodi:ry="8.9285717"
         d="m 325.00001,237.71933 c 0,4.93111 -8.63451,8.92857 -19.28572,8.92857 -10.6512,0 -19.28571,-3.99746 -19.28571,-8.92857 0,-4.93111 8.63451,-8.92857 19.28571,-8.92857 10.65121,0 19.28572,3.99746 19.28572,8.92857 z"
         transform="matrix(0.43877982,-0.11843377,0.14882251,0.54005806,-443.69429,241.69654)" />
      <path
         sodipodi:type="arc"
         style="opacity:0.32758627;fill:#b7c8be;fill-opacity:1;stroke:none"
         id="path4105"
         sodipodi:cx="305.71429"
         sodipodi:cy="237.71933"
         sodipodi:rx="19.285715"
         sodipodi:ry="8.9285717"
         d="m 325.00001,237.71933 c 0,4.93111 -8.63451,8.92857 -19.28572,8.92857 -10.6512,0 -19.28571,-3.99746 -19.28571,-8.92857 0,-4.93111 8.63451,-8.92857 19.28571,-8.92857 10.65121,0 19.28572,3.99746 19.28572,8.92857 z"
         transform="matrix(0.43288196,0.13844674,-0.1678384,0.53445403,-335.6688,164.10246)" />
      <path
         style="fill:#ffccaa;fill-opacity:1;stroke:none"
         d="m -283.06505,364.99775 c 0,0 3.68229,2.75908 13.56103,0.51479 9.87873,-2.24428 9.06665,-5.81885 9.06665,-5.81885 l 1.41231,6.21664 c 0,0 -6.40829,4.07085 -13.778,5.25481 -7.36969,1.18396 -11.52715,-0.97684 -11.52715,-0.97684 z"
         id="path4137"
         inkscape:connector-curvature="0" />
      <path
         inkscape:connector-curvature="0"
         id="path4139"
         d="m -238.54921,361.47072 c 0,0 -2.46586,3.50628 -10.84982,3.50628 -8.38395,0 -8.38395,-3.66566 -8.38395,-3.66566 l 0,6.37505 c 0,0 5.91808,2.55002 12.08275,2.07189 6.16468,-0.47812 9.12371,-3.50627 9.12371,-3.50627 z"
         style="fill:#ffccaa;fill-opacity:1;stroke:none" />
    </g>
    <path
       style="fill:#0b2822;stroke:#000000;stroke-width:0.95586526px;stroke-linecap:butt;stroke-linejoin:miter;stroke-opacity:1"
       d="m 1114.3693,62.03217 72.3726,19.1173 75.1037,-19.1173 6.8276,23.21387 -10.9242,2.73103 19.1173,118.80042 4.0966,176.15232 -35.5036,6.82755 -53.2553,-13.65519 16.3862,-155.66948 -23.2138,-81.9313 -24.5794,80.56579 8.1931,161.13154 -46.4277,16.38628 -35.5036,-10.92419 2.7311,-177.51781 27.3104,-128.35904 -12.2897,-4.09658 z"
       id="path4185"
       inkscape:connector-curvature="0" />
    <g
       id="g3386"
       transform="matrix(1.7319427,0,0,1.7319427,1609.7345,-1054.1944)">
      <path
         style="fill:#ffccaa;fill-opacity:1;stroke:none"
         d="m -274.17309,408.59296 c 0.85026,12.46226 -8.30659,25.16705 -8.30659,25.16705 0,0 -41.00133,18.1832 -46.57638,23.75827 -5.57505,5.57507 -18.95526,33.45041 -18.95526,42.37051 0,8.92011 28.05021,53.48102 28.05021,53.48102 0,0 6.90996,8.83287 10.41778,4.49968 9.4776,-11.70764 5.57508,-17.28271 -0.55749,-25.64531 -3.2969,-4.49576 -9.47762,-18.39771 -11.15016,-28.99035 -1.55543,-9.85094 11.7269,-24.43577 17.2827,-23.97279 20.07025,1.67253 30.10535,39.02547 25.64531,45.71555 -4.46004,6.69009 -8.3626,42.37052 -7.24759,46.83057 1.11501,4.46005 19.51276,1.11501 30.66287,3.34504 11.15016,2.23002 33.45043,-8.92011 33.45043,-8.92011 0,0 2.23002,-16.7252 -2.23008,-21.18525 -4.46004,-4.46005 -21.1852,-33.45041 -20.07019,-43.48552 1.11501,-10.03513 42.37046,-21.74277 42.37046,-21.74277 0,0 8.92013,-1.11501 12.26516,5.57507 3.34503,6.69008 -12.82262,42.37051 -13.93763,45.71555 -1.11501,3.34504 8.92007,8.92011 8.92007,8.92011 l 15.05268,-10.03512 c 0,0 9.42594,-18.10285 17.01217,-42.92802 2.28101,-7.46435 -17.56971,-34.00791 -25.37478,-36.23794 -7.80507,-2.23002 -44.01977,-10.56942 -47.36486,-15.02947 -3.34503,-4.46005 -9.72008,-24.47426 -10.63223,-28.41643 -1.00541,-4.34524 -28.7266,1.21066 -28.7266,1.21066 z"
         id="path4201"
         inkscape:connector-curvature="0"
         sodipodi:nodetypes="ccsscssssssscsscssccssssc" />
      <path
         sodipodi:nodetypes="ccccc"
         style="fill:#deaa87;stroke:none"
         d="m -273.97598,406.727 -0.88424,12.26708 33.44576,3.30562 -4.7361,-17.51363 z"
         id="path4203"
         inkscape:connector-curvature="0" />
      <path
         sodipodi:nodetypes="ccccccccccccccccc"
         inkscape:connector-curvature="0"
         id="path4183"
         d="m -335.77666,458.95907 25.17639,27.43724 7.40482,-5.19082 15.16314,89.72721 65.20708,-0.64095 14.41148,-88.34472 8.88579,2.96619 20.7335,-34.11117 -25.17638,-14.83094 -19.99303,-11.86476 -12.58819,-1.48309 -5.92386,16.31403 -31.10024,0.74155 -7.40483,-14.83094 -12.58819,1.48309 -26.65736,17.79714 z"
         style="fill:#006680;stroke:none" />
      <path
         inkscape:connector-curvature="0"
         id="path4193"
         d="m -298.67833,421.87679 27.59518,63.07468 61.49782,40.21012 -4.73061,20.49926 -68.59371,-44.94071 -28.38361,-70.17058 z"
         style="fill:#241f1c;stroke:none" />
      <path
         sodipodi:nodetypes="cssssc"
         inkscape:connector-curvature="0"
         id="path4205"
         d="m -320.30174,540.8013 c -8.3626,5.57506 -9.33231,19.45195 -6.69009,23.41528 3.34505,5.01757 11.15014,8.92011 15.61019,6.69008 4.46006,-2.23002 64.67079,7.24759 79.16596,-5.57507 4.86967,-4.30778 -5.40915,-52.18521 -17.28271,-49.06058 -31.77788,8.3626 -59.09571,17.2827 -70.80335,24.53029 z"
         style="fill:#918a6f;stroke:none" />
      <path
         inkscape:connector-curvature="0"
         id="path4207"
         d="m -251.94849,531.89069 c 0,0 173.017039,-48.32538 174.465648,-43.96225 1.448608,4.36313 -4.498069,7.04986 -1.979728,10.77287 2.518341,3.72302 9.955721,5.95533 4.607059,9.15588 -5.348663,3.20055 -173.092589,39.94456 -175.484629,37.88929 -2.39205,-2.05528 -6.05567,-13.51901 -1.60835,-13.85579 z"
         style="fill:#484537;stroke:none" />
      <path
         style="fill:#484537;stroke:none"
         d="m -248.5664,544.07095 c 0,0 176.992126,-29.94662 177.995398,-25.54579 1.003267,4.40083 -5.183003,6.43088 -3.05116,10.31354 2.131844,3.88267 9.307467,6.8 3.66459,9.3908 -5.642866,2.5908 -176.225958,21.76249 -178.399568,19.51949 -2.17361,-2.243 -4.66787,-13.79162 -0.20926,-13.67804 z"
         id="path4209"
         inkscape:connector-curvature="0" />
      <path
         transform="matrix(0.5519035,0,0,0.5519035,-608.53272,302.30806)"
         d="m 618.57145,413.79074 c 0,2.36694 -2.07868,4.28572 -4.64286,4.28572 -2.56418,0 -4.64286,-1.91878 -4.64286,-4.28572 0,-2.36693 2.07868,-4.28571 4.64286,-4.28571 2.56418,0 4.64286,1.91878 4.64286,4.28571 z"
         sodipodi:ry="4.2857141"
         sodipodi:rx="4.6428571"
         sodipodi:cy="413.79074"
         sodipodi:cx="613.92859"
         id="path4211"
         style="fill:#484537;fill-opacity:1;stroke:none"
         sodipodi:type="arc" />
      <path
         transform="matrix(0.5519035,0,0,0.5519035,-608.53272,302.30806)"
         d="m 624.28572,432.00504 c 0,2.16969 -1.59898,3.92857 -3.57143,3.92857 -1.97244,0 -3.57142,-1.75888 -3.57142,-3.92857 0,-2.16969 1.59898,-3.92858 3.57142,-3.92858 1.97245,0 3.57143,1.75889 3.57143,3.92858 z"
         sodipodi:ry="3.9285715"
         sodipodi:rx="3.5714285"
         sodipodi:cy="432.00504"
         sodipodi:cx="620.71429"
         id="path4213"
         style="fill:#484537;fill-opacity:1;stroke:none"
         sodipodi:type="arc" />
      <path
         transform="matrix(0.5519035,0,0,0.5519035,-608.53272,302.30806)"
         d="m 627.14284,450.93362 c 0,1.97245 -1.59898,3.57143 -3.57143,3.57143 -1.97244,0 -3.57143,-1.59898 -3.57143,-3.57143 0,-1.97244 1.59899,-3.57142 3.57143,-3.57142 1.97245,0 3.57143,1.59898 3.57143,3.57142 z"
         sodipodi:ry="3.5714285"
         sodipodi:rx="3.5714285"
         sodipodi:cy="450.93362"
         sodipodi:cx="623.57141"
         id="path4215"
         style="fill:#484537;fill-opacity:1;stroke:none"
         sodipodi:type="arc" />
      <path
         transform="matrix(0.5519035,0,0,0.5519035,-608.53272,302.30806)"
         d="m 628.57143,468.07648 c 0,1.97244 -1.59898,3.57143 -3.57143,3.57143 -1.97245,0 -3.57143,-1.59899 -3.57143,-3.57143 0,-1.97245 1.59898,-3.57143 3.57143,-3.57143 1.97245,0 3.57143,1.59898 3.57143,3.57143 z"
         sodipodi:ry="3.5714285"
         sodipodi:rx="3.5714285"
         sodipodi:cy="468.07648"
         sodipodi:cx="625"
         id="path4217"
         style="fill:#484537;fill-opacity:1;stroke:none"
         sodipodi:type="arc" />
      <path
         transform="matrix(0.5519035,0,0,0.5519035,-608.53272,302.30806)"
         d="m 605.00003,429.14789 c 0,1.7752 -1.27919,3.21428 -2.85715,3.21428 -1.57795,0 -2.85714,-1.43908 -2.85714,-3.21428 0,-1.7752 1.27919,-3.21429 2.85714,-3.21429 1.57796,0 2.85715,1.43909 2.85715,3.21429 z"
         sodipodi:ry="3.2142856"
         sodipodi:rx="2.8571429"
         sodipodi:cy="429.14789"
         sodipodi:cx="602.14288"
         id="path4219"
         style="fill:#484537;fill-opacity:1;stroke:none"
         sodipodi:type="arc" />
      <path
         transform="matrix(0.5519035,0,0,0.5519035,-608.53272,302.30806)"
         d="m 608.5714,446.29074 c 0,2.16969 -1.43908,3.92857 -3.21428,3.92857 -1.7752,0 -3.21429,-1.75888 -3.21429,-3.92857 0,-2.16969 1.43909,-3.92857 3.21429,-3.92857 1.7752,0 3.21428,1.75888 3.21428,3.92857 z"
         sodipodi:ry="3.9285715"
         sodipodi:rx="3.2142856"
         sodipodi:cy="446.29074"
         sodipodi:cx="605.35712"
         id="path4221"
         style="fill:#484537;fill-opacity:1;stroke:none"
         sodipodi:type="arc" />
      <path
         transform="matrix(0.5519035,0,0,0.5519035,-608.53272,302.30806)"
         d="m 610.71427,464.14789 c 0,2.16969 -2.07868,3.92857 -4.64286,3.92857 -2.56418,0 -4.64286,-1.75888 -4.64286,-3.92857 0,-2.16969 2.07868,-3.92857 4.64286,-3.92857 2.56418,0 4.64286,1.75888 4.64286,3.92857 z"
         sodipodi:ry="3.9285715"
         sodipodi:rx="4.6428571"
         sodipodi:cy="464.14789"
         sodipodi:cx="606.07141"
         id="path4223"
         style="fill:#484537;fill-opacity:1;stroke:none"
         sodipodi:type="arc" />
      <path
         transform="matrix(0.5519035,0,0,0.5519035,-608.53272,302.30806)"
         d="m 586.42857,439.50504 c 0,2.36693 -1.75888,4.28571 -3.92857,4.28571 -2.16969,0 -3.92857,-1.91878 -3.92857,-4.28571 0,-2.36694 1.75888,-4.28572 3.92857,-4.28572 2.16969,0 3.92857,1.91878 3.92857,4.28572 z"
         sodipodi:ry="4.2857141"
         sodipodi:rx="3.9285715"
         sodipodi:cy="439.50504"
         sodipodi:cx="582.5"
         id="path4225"
         style="fill:#484537;fill-opacity:1;stroke:none"
         sodipodi:type="arc" />
      <path
         transform="matrix(0.5519035,0,0,0.5519035,-608.53272,302.30806)"
         d="m 589.28569,455.21933 c 0,1.97245 -1.75888,3.57143 -3.92857,3.57143 -2.16969,0 -3.92857,-1.59898 -3.92857,-3.57143 0,-1.97245 1.75888,-3.57143 3.92857,-3.57143 2.16969,0 3.92857,1.59898 3.92857,3.57143 z"
         sodipodi:ry="3.5714285"
         sodipodi:rx="3.9285715"
         sodipodi:cy="455.21933"
         sodipodi:cx="585.35712"
         id="path4227"
         style="fill:#484537;fill-opacity:1;stroke:none"
         sodipodi:type="arc" />
      <path
         transform="matrix(0.5519035,0,0,0.5519035,-608.53272,302.30806)"
         d="m 571.42855,449.50504 c 0,1.97244 -1.59899,3.57142 -3.57143,3.57142 -1.97245,0 -3.57143,-1.59898 -3.57143,-3.57142 0,-1.97245 1.59898,-3.57143 3.57143,-3.57143 1.97244,0 3.57143,1.59898 3.57143,3.57143 z"
         sodipodi:ry="3.5714285"
         sodipodi:rx="3.5714285"
         sodipodi:cy="449.50504"
         sodipodi:cx="567.85712"
         id="path4229"
         style="fill:#484537;fill-opacity:1;stroke:none"
         sodipodi:type="arc" />
      <path
         transform="matrix(0.5519035,0,0,0.5519035,-608.53272,302.30806)"
         d="m 552.14287,457.00504 c 0,2.16969 -1.75889,3.92857 -3.92858,3.92857 -2.16969,0 -3.92857,-1.75888 -3.92857,-3.92857 0,-2.16969 1.75888,-3.92858 3.92857,-3.92858 2.16969,0 3.92858,1.75889 3.92858,3.92858 z"
         sodipodi:ry="3.9285715"
         sodipodi:rx="3.9285715"
         sodipodi:cy="457.00504"
         sodipodi:cx="548.21429"
         id="path4231"
         style="fill:#484537;fill-opacity:1;stroke:none"
         sodipodi:type="arc" />
      <path
         transform="matrix(0.5519035,0,0,0.5519035,-608.53272,302.30806)"
         d="m 533.57146,463.79074 c 0,4.73387 -3.99746,8.57143 -8.92858,8.57143 -4.93111,0 -8.92857,-3.83756 -8.92857,-8.57143 0,-4.73387 3.99746,-8.57143 8.92857,-8.57143 4.93112,0 8.92858,3.83756 8.92858,8.57143 z"
         sodipodi:ry="8.5714283"
         sodipodi:rx="8.9285717"
         sodipodi:cy="463.79074"
         sodipodi:cx="524.64288"
         id="path4233"
         style="fill:#484537;fill-opacity:1;stroke:none"
         sodipodi:type="arc" />
      <path
         transform="matrix(0.5519035,0,0,0.5519035,-608.53272,302.30806)"
         d="m 545.71427,441.29074 c 0,4.14214 -3.19797,7.5 -7.14286,7.5 -3.94489,0 -7.14286,-3.35786 -7.14286,-7.5 0,-4.14213 3.19797,-7.5 7.14286,-7.5 3.94489,0 7.14286,3.35787 7.14286,7.5 z"
         sodipodi:ry="7.5"
         sodipodi:rx="7.1428571"
         sodipodi:cy="441.29074"
         sodipodi:cx="538.57141"
         id="path4235"
         style="fill:#484537;fill-opacity:1;stroke:none"
         sodipodi:type="arc" />
      <path
         transform="matrix(0.5519035,0,0,0.5519035,-608.53272,302.30806)"
         d="m 553.57145,474.50504 c 0,3.15591 -2.87816,5.71428 -6.42857,5.71428 -3.5504,0 -6.42857,-2.55837 -6.42857,-5.71428 0,-3.15592 2.87817,-5.71429 6.42857,-5.71429 3.55041,0 6.42857,2.55837 6.42857,5.71429 z"
         sodipodi:ry="5.7142859"
         sodipodi:rx="6.4285712"
         sodipodi:cy="474.50504"
         sodipodi:cx="547.14288"
         id="path4237"
         style="fill:#484537;fill-opacity:1;stroke:none"
         sodipodi:type="arc" />
      <rect
         transform="matrix(0.99669874,-0.08118876,0.08118876,0.99669874,0,0)"
         ry="0.11868639"
         rx="0.22370222"
         y="496.17615"
         x="-157.41911"
         height="21.287706"
         width="6.3074689"
         id="rect4239"
         style="fill:#484537;fill-opacity:1;stroke:none" />
      <rect
         transform="matrix(0.97172394,-0.23611985,0.23611985,0.97172394,0,0)"
         ry="0.11868639"
         rx="0.22370222"
         y="465.5686"
         x="-256.54211"
         height="20.499273"
         width="7.8843355"
         id="rect4241"
         style="fill:#484537;fill-opacity:1;stroke:none" />
      <rect
         ry="0.11868639"
         rx="0.22370222"
         y="524.37317"
         x="-198.54726"
         height="13.403371"
         width="51.24818"
         id="rect4243"
         style="fill:#484537;fill-opacity:1;stroke:none" />
      <rect
         transform="matrix(0.99763033,-0.06880208,0.06880208,0.99763033,0,0)"
         ry="0.11868639"
         rx="0.22370222"
         y="497.99619"
         x="-129.84924"
         height="23.653008"
         width="7.8843355"
         id="rect4245"
         style="fill:#484537;fill-opacity:1;stroke:none" />
      <path
         transform="matrix(0.5519035,0,0,0.5519035,-598.28308,308.22131)"
         d="m 919.28571,320.57648 c 0,7.69253 -6.39593,13.92857 -14.28571,13.92857 -7.88978,0 -14.28571,-6.23604 -14.28571,-13.92857 0,-7.69254 6.39593,-13.92857 14.28571,-13.92857 7.88978,0 14.28571,6.23603 14.28571,13.92857 z"
         sodipodi:ry="13.928572"
         sodipodi:rx="14.285714"
         sodipodi:cy="320.57648"
         sodipodi:cx="905"
         id="path4247"
         style="fill:#484537;fill-opacity:1;stroke:none"
         sodipodi:type="arc" />
      <path
         transform="matrix(0.37253486,0,0,0.36793566,-436.15157,366.99996)"
         sodipodi:type="arc"
         style="fill:#ffffff;fill-opacity:1;stroke:none"
         id="path4249"
         sodipodi:cx="905"
         sodipodi:cy="320.57648"
         sodipodi:rx="14.285714"
         sodipodi:ry="13.928572"
         d="m 919.28571,320.57648 c 0,7.69253 -6.39593,13.92857 -14.28571,13.92857 -7.88978,0 -14.28571,-6.23604 -14.28571,-13.92857 0,-7.69254 6.39593,-13.92857 14.28571,-13.92857 7.88978,0 14.28571,6.23603 14.28571,13.92857 z" />
    </g>
    <g
       id="g3365"
       transform="matrix(1.7319427,0,0,1.7319427,1766.1791,-398.57756)">
      <path
         style="fill:#1f241c;stroke:#000000;stroke-width:0.41737181px;stroke-linecap:butt;stroke-linejoin:miter;stroke-opacity:1"
         d="m -571.80086,608.00057 c 1.0346,4.04722 2.69224,17.40362 2.69224,17.40362 l 19.63479,4.64859 -1.64875,14.16694 -17.35858,4.25531 -10.33749,-12.94895 -8.06126,-4.04505 -9.0926,2.22897 2.88922,-12.75067 -1.03686,-10.92807 z"
         id="path4267"
         inkscape:connector-curvature="0" />
      <path
         inkscape:connector-curvature="0"
         id="path4269"
         d="m -656.76131,607.17256 c -1.07114,3.93635 -2.78722,16.92684 -2.78722,16.92684 l -20.32711,4.52123 1.70693,13.77882 17.97064,4.13873 10.70191,-12.5942 8.34555,-3.93423 9.41321,2.16791 -2.9911,-12.40136 1.07346,-10.62867 z"
         style="fill:#1f241c;stroke:#000000;stroke-width:0.4188087px;stroke-linecap:butt;stroke-linejoin:miter;stroke-opacity:1" />
    </g>
    <g
       transform="matrix(1.7319427,0,0,1.7319427,1300.6116,-829.91672)"
       id="g3934">
      <path
         sodipodi:nodetypes="ccsscssssssscsscssccssssc"
         inkscape:connector-curvature="0"
         id="path4195"
         d="m -620.57929,281.00153 c 2.23002,12.26515 -2.78755,17.28271 -2.78755,17.28271 0,0 -25.08777,1.67252 -30.66282,7.24758 -5.57506,5.57507 -41.25553,60.21073 -41.25553,69.13084 0,8.92011 40.14046,58.53821 40.14046,58.53821 0,0 1.11507,-18.39772 4.4601,-22.85778 3.34503,-4.46006 -17.2827,0 -17.2827,-5.57507 0,-5.57506 -10.59262,-20.07024 -12.26517,-30.66287 -1.55543,-9.85094 36.47508,-55.0267 35.12292,-49.6181 -3.34503,13.38017 16.16768,68.57333 11.70764,75.26341 -4.46004,6.69009 -22.30027,32.33539 -21.18526,36.79544 1.11501,4.46006 33.45043,11.15014 44.60054,13.38017 11.15016,2.23002 33.45041,-8.92011 33.45041,-8.92011 0,0 2.23002,-16.7252 -2.23008,-21.18525 -4.46004,-4.46006 -21.18518,-33.45041 -20.07017,-43.48553 1.11501,-10.03512 17.84015,-55.19317 17.84015,-55.19317 0,0 36.79547,26.76033 40.1405,33.45041 3.34503,6.69008 -35.6804,49.61809 -36.79541,52.96314 -1.11501,3.34504 5.01752,20.62775 5.01752,20.62775 l 10.59263,-29.54786 c 0,0 39.02548,-35.68043 39.02548,-43.48553 0,-7.80509 -49.06063,-50.73311 -56.86571,-52.96313 -7.80507,-2.23003 -20.07017,-0.55751 -23.41526,-5.01756 -3.34503,-4.46006 -2.22996,-18.95523 -6.69006,-18.95523 -4.46004,0 -10.59263,2.78753 -10.59263,2.78753 z"
         style="fill:#ffccaa;fill-opacity:1;stroke:none" />
      <path
         sodipodi:nodetypes="cccccccccccccccc"
         inkscape:connector-curvature="0"
         id="path4181"
         d="m -649.81511,300.59282 10.24962,29.17204 27.59518,5.51904 26.01831,-6.30747 3.94214,-31.53734 8.67278,1.57686 -7.09588,32.32578 -8.67278,57.55565 13.40336,21.2877 3.15374,18.92241 -41.39274,10.64385 -41.39276,-9.85541 3.15374,-25.22988 15.76865,-15.76867 -20.49929,-89.09299 z"
         style="fill:#483e37;stroke:none" />
      <path
         inkscape:connector-curvature="0"
         id="path4197"
         d="m -620.57929,281.00153 1.11501,11.15013 14.49519,3.34505 -2.23002,-16.72521 z"
         style="fill:#deaa87;stroke:none" />
    </g>
    <g
       id="g3218"
       transform="matrix(1.7319427,0,0,1.7319427,1269.2211,-1064.9613)">
      <path
         style="fill:#ffccaa;stroke:none"
         d="m -611.4247,287.27467 c 8.0824,-0.69279 31.09864,-18.38331 33.67167,-36.33078 2.01401,-14.04817 -5.42339,-46.07214 -32.2301,-47.649 -26.80673,-1.57687 -40.10495,33.55993 -35.28821,47.74465 5.5915,16.46627 25.35836,36.89988 33.84664,36.23513 z"
         id="path4141"
         inkscape:connector-curvature="0"
         sodipodi:nodetypes="csssc" />
      <path
         inkscape:connector-curvature="0"
         id="path4145"
         d="m -621.07689,270.40406 c 1.83911,-0.74701 3.38781,-2.656 6.19484,-2.241 2.80704,0.41499 2.71029,1.57699 2.71029,1.57699 0,0 -0.0968,-2.24099 2.51663,-1.90899 2.61348,0.332 5.22691,2.40699 6.00128,1.90899 0.77438,-0.49799 -1.35514,5.644 -6.96921,4.81399 -5.61413,-0.82999 -10.45383,-4.14998 -10.45383,-4.14998 z"
         style="fill:#db6d5e;fill-opacity:1;stroke:none" />
      <path
         sodipodi:type="arc"
         style="fill:#ffffff;fill-opacity:1;stroke:none"
         id="path4147"
         sodipodi:cx="4.6428571"
         sodipodi:cy="300.21933"
         sodipodi:rx="15.357142"
         sodipodi:ry="15"
         d="m 20,300.21933 c 0,8.28427 -6.875627,15 -15.3571429,15 -8.4815156,0 -15.3571421,-6.71573 -15.3571421,-15 0,-8.28427 6.8756265,-15 15.3571421,-15 8.4815159,0 15.3571429,6.71573 15.3571429,15 z"
         transform="matrix(0.5519035,0,0,0.5519035,-602.11966,73.05428)" />
      <path
         sodipodi:type="arc"
         style="fill:#ffffff;fill-opacity:1;stroke:none"
         id="path4149"
         sodipodi:cx="4.6428571"
         sodipodi:cy="300.21933"
         sodipodi:rx="15.357142"
         sodipodi:ry="15"
         d="m 20,300.21933 c 0,8.28427 -6.875627,15 -15.3571429,15 -8.4815156,0 -15.3571421,-6.71573 -15.3571421,-15 0,-8.28427 6.8756265,-15 15.3571421,-15 8.4815159,0 15.3571429,6.71573 15.3571429,15 z"
         transform="matrix(0.5519035,0,0,0.5519035,-625.96979,74.631146)" />
      <path
         sodipodi:type="arc"
         style="fill:#918a6f;fill-opacity:1;stroke:none"
         id="path4151"
         sodipodi:cx="36.870567"
         sodipodi:cy="385.15643"
         sodipodi:rx="11.616755"
         sodipodi:ry="11.111678"
         d="m 48.487322,385.15643 c 0,6.13681 -5.200998,11.11168 -11.616755,11.11168 -6.415756,0 -11.616754,-4.97487 -11.616754,-11.11168 0,-6.13681 5.200998,-11.11168 11.616754,-11.11168 6.415757,0 11.616755,4.97487 11.616755,11.11168 z"
         transform="matrix(0.44392238,0,0,0.45155741,-639.78316,67.562548)" />
      <path
         sodipodi:type="arc"
         style="fill:#00222b;fill-opacity:1;stroke:none"
         id="path4153"
         sodipodi:cx="36.870567"
         sodipodi:cy="385.15643"
         sodipodi:rx="11.616755"
         sodipodi:ry="11.111678"
         d="m 48.487322,385.15643 c 0,6.13681 -5.200998,11.11168 -11.616755,11.11168 -6.415756,0 -11.616754,-4.97487 -11.616754,-11.11168 0,-6.13681 5.200998,-11.11168 11.616754,-11.11168 6.415757,0 11.616755,4.97487 11.616755,11.11168 z"
         transform="matrix(0.25195595,0,0,0.26340849,-632.84463,140.16869)" />
      <path
         sodipodi:type="arc"
         style="fill:#918a6f;fill-opacity:1;stroke:none"
         id="path4155"
         sodipodi:cx="36.870567"
         sodipodi:cy="385.15643"
         sodipodi:rx="11.616755"
         sodipodi:ry="11.111678"
         d="m 48.487322,385.15643 c 0,6.13681 -5.200998,11.11168 -11.616755,11.11168 -6.415756,0 -11.616754,-4.97487 -11.616754,-11.11168 0,-6.13681 5.200998,-11.11168 11.616754,-11.11168 6.415757,0 11.616755,4.97487 11.616755,11.11168 z"
         transform="matrix(0.44392238,0,0,0.45155741,-615.9497,65.890026)" />
      <path
         sodipodi:type="arc"
         style="fill:#00222b;fill-opacity:1;stroke:none"
         id="path4157"
         sodipodi:cx="36.870567"
         sodipodi:cy="385.15643"
         sodipodi:rx="11.616755"
         sodipodi:ry="11.111678"
         d="m 48.487322,385.15643 c 0,6.13681 -5.200998,11.11168 -11.616755,11.11168 -6.415756,0 -11.616754,-4.97487 -11.616754,-11.11168 0,-6.13681 5.200998,-11.11168 11.616754,-11.11168 6.415757,0 11.616755,4.97487 11.616755,11.11168 z"
         transform="matrix(0.25195595,0,0,0.26340849,-609.01117,138.49617)" />
      <path
         style="fill:#ffccaa;fill-opacity:1;stroke:none"
         d="m -636.08783,242.79353 c 0,0 3.20004,-8.59385 13.3272,-8.33515 10.12715,0.2587 9.89563,9.32273 9.89563,9.32273 l 0.40266,-15.76353 c 0,0 -6.98748,-6.48802 -14.46412,-5.49598 -7.47663,0.99207 -11.24222,8.38842 -11.24222,8.38842 z"
         id="path4159"
         inkscape:connector-curvature="0" />
      <path
         style="fill:#ffccaa;fill-opacity:1;stroke:none"
         d="m -611.89868,240.74515 c 0,0 3.92564,-8.28758 13.99324,-7.16088 10.06759,1.12669 9.05915,10.13742 9.05915,10.13742 l 1.75378,-15.67084 c 0,0 -6.40504,-7.06365 -13.93924,-6.71679 -7.53415,0.34687 -11.92045,7.39286 -11.92045,7.39286 z"
         id="path4161"
         inkscape:connector-curvature="0" />
      <path
         sodipodi:nodetypes="cccc"
         inkscape:connector-curvature="0"
         id="path4169"
         d="m -623.27258,229.45801 7.8229,2.70838 -19.01832,-2.25217 z"
         style="fill:#6c5353;fill-opacity:1;stroke:none" />
      <path
         style="fill:#6c5353;fill-opacity:1;stroke:none"
         d="m -596.08311,227.90975 6.83961,4.55127 -17.81421,-6.68387 z"
         id="path4171"
         inkscape:connector-curvature="0"
         sodipodi:nodetypes="cccc" />
      <path
         sodipodi:nodetypes="cccccccccccccccccccccccccccccccccccccccc"
         inkscape:connector-curvature="0"
         id="path4175"
         d="m -635.99042,270.90498 -12.26518,-21.74276 -0.55747,-35.68043 20.07024,-14.21642 29.82658,-3.62379 16.7252,15.05268 23.69404,-14.77393 25.92407,28.99035 -19.79148,31.77788 3.6238,-26.48156 -17.00398,-19.79149 -14.49514,5.2963 3.06626,6.96885 1.95126,10.31386 0,15.33144 -2.7875,14.49518 -10.31392,10.03512 5.85382,-13.10141 4.18133,-7.52634 -6.69006,3.90255 5.01752,-16.1677 -3.90251,3.06629 0,-19.79149 -1.67254,6.13258 -11.15009,-18.11897 -0.55754,5.57506 -17.84022,-12.5439 1.95131,6.96884 -11.42893,-2.50879 1.67254,4.46006 -8.08384,0.83626 -1.11501,9.19886 -3.06632,-5.01756 -4.73881,13.38016 -0.83624,-6.69008 -0.55754,22.85778 -3.06626,-4.46006 5.85382,13.10141 -4.46004,-0.83626 z"
         style="fill:#6c5353;fill-opacity:1;stroke:none" />
    </g>
    <g
       transform="matrix(1.7319427,0,0,1.7319427,1480.6116,-749.91672)"
       id="g4049">
      <g
         id="g3373">
        <path
           inkscape:connector-curvature="0"
           id="path4187"
           d="m -764.69402,465.9068 41.78698,11.03807 43.36382,-11.03807 3.94219,13.40337 -6.30748,1.57687 11.03807,68.59372 2.36529,101.70794 -20.49924,3.94214 -30.7489,-7.88433 9.46117,-89.88142 -13.40337,-47.30601 -14.19181,46.51758 4.73064,93.03514 -26.80678,9.46123 -20.49924,-6.30749 1.57684,-102.49635 15.76866,-74.11275 -7.09588,-2.3653 z"
           style="fill:#504416;stroke:none" />
        <path
           style="fill:#241f1c;stroke:none"
           d="m -774.94364,457.23403 c -6.30749,1.57687 -6.30749,11.03807 -6.30749,11.03807 l 10.24962,-2.3653 14.19181,3.94217 -6.30748,16.55711 3.15374,5.51903 -10.24962,33.11421 7.09588,-3.15374 18.9224,-55.97878 -2.36529,-9.4612 -5.51904,0 -1.57684,5.51903 z"
           id="path4199"
           inkscape:connector-curvature="0" />
      </g>
    </g>
    <g
       id="g3361"
       transform="matrix(1.7319427,0,0,1.7319427,1003.1352,-688.21642)">
      <path
         style="fill:#502d16;stroke:#000000;stroke-width:0.47605577px;stroke-linecap:butt;stroke-linejoin:miter;stroke-opacity:1"
         d="m -402.28609,763.33526 c 1.14783,4.74609 2.98684,20.40885 2.98684,20.40885 l 21.78294,5.45129 -1.82913,16.61326 -19.2577,4.9901 -11.46847,-15.18495 -8.94325,-4.74353 -10.08737,2.61386 3.2053,-14.95243 -1.1503,-12.8151 z"
         id="path4261"
         inkscape:connector-curvature="0" />
      <path
         inkscape:connector-curvature="0"
         id="path4259"
         d="m -490.16057,766.61306 c -1.18172,4.74609 -3.07503,20.40885 -3.07503,20.40885 l -22.42613,5.45129 1.88314,16.61326 19.82633,4.9901 11.8071,-15.18495 9.2073,-4.74353 10.38522,2.61386 -3.29994,-14.95243 1.18427,-12.8151 z"
         style="fill:#502d16;stroke:#000000;stroke-width:0.48303282px;stroke-linecap:butt;stroke-linejoin:miter;stroke-opacity:1" />
    </g>
    <path
       style="fill:#ac9393;stroke:none"
       d="m 624.3493,66.58016 72.3727,19.1173 75.1037,-19.1173 6.8276,23.21388 -10.9242,2.73104 19.1173,118.8004 4.0966,176.15232 -35.5036,6.82756 -53.2554,-13.6552 16.3863,-155.66948 -23.2139,-81.93129 -24.5794,80.56578 8.1932,161.13153 -46.4278,16.38632 -35.5035,-10.9242 2.731,-177.51783 27.3105,-128.35904 -12.2897,-4.09657 z"
       id="path4189"
       inkscape:connector-curvature="0" />
    <g
       id="g3337"
       transform="matrix(1.7319427,0,0,1.7319427,1168.0869,-977.55728)">
      <path
         sodipodi:nodetypes="csssc"
         inkscape:connector-curvature="0"
         id="path3755"
         d="m -279.26199,240.65942 c 30.35469,-5.12482 33.11421,-39.42168 33.11421,-53.61349 0,-14.1918 -7.09591,-35.47951 -33.90265,-37.05637 -26.80674,-1.57687 -38.63325,20.49927 -38.63325,35.4795 0,14.98024 3.15374,55.19035 39.42169,55.19036 z"
         style="fill:#ffccaa;stroke:none" />
      <path
         inkscape:connector-curvature="0"
         id="path3757"
         d="m -316.71259,208.72786 c 0,0 -6.30747,-27.9894 -5.91325,-31.53735 0.39421,-3.54795 -2.3653,-23.25879 -2.3653,-23.25879 l 5.91325,10.24964 1.57687,-20.89349 5.12482,9.06698 5.12481,-25.22987 5.12482,16.55711 9.4612,-5.91326 -1.57686,7.0959 12.61493,-9.4612 -1.57686,9.85542 14.1918,-4.7306 -1.97108,7.0959 24.83566,-5.12481 -8.67277,9.4612 12.61493,-1.97108 -5.91325,5.91324 23.65301,-1.57686 -22.07614,8.27855 10.64385,1.18265 -7.0959,7.49012 -1.57687,26.80674 -3.54795,12.61494 -4.7306,-8.67277 1.57687,-16.95132 -3.94217,4.33638 1.18265,-13.79758 -5.12482,2.75951 0.78844,-9.85542 -3.94217,3.15374 -18.13397,-8.27856 5.12481,7.0959 -14.98023,-5.91324 2.75952,5.91324 -19.31663,-2.75951 3.54795,4.7306 -9.85542,0 2.75952,17.34554 -4.33639,-5.91325 3.54795,16.95132 -3.54795,-1.57687 5.12482,13.79759 z"
         style="fill:#483e37;stroke:none" />
      <path
         inkscape:connector-curvature="0"
         id="path3759"
         d="m -288.32898,229.62134 3.54795,4.73061 2.75952,-5.12482 2.3653,2.75952 3.15374,-3.15374 2.36529,2.75952 1.97109,-2.3653 -0.78843,16.5571 -3.54795,-2.75951 -2.36531,3.15373 -1.18265,-2.75952 -3.15373,3.94217 z"
         style="fill:#483e37;fill-opacity:1;stroke:none" />
      <path
         transform="matrix(0.5519035,0,0,0.5519035,-273.74296,22.930701)"
         d="m 20,300.21933 c 0,8.28427 -6.875627,15 -15.3571429,15 -8.4815156,0 -15.3571421,-6.71573 -15.3571421,-15 0,-8.28427 6.8756265,-15 15.3571421,-15 8.4815159,0 15.3571429,6.71573 15.3571429,15 z"
         sodipodi:ry="15"
         sodipodi:rx="15.357142"
         sodipodi:cy="300.21933"
         sodipodi:cx="4.6428571"
         id="path3761"
         style="fill:#ffffff;fill-opacity:1;stroke:none"
         sodipodi:type="arc" />
      <path
         transform="matrix(0.5519035,0,0,0.5519035,-297.59308,24.507571)"
         d="m 20,300.21933 c 0,8.28427 -6.875627,15 -15.3571429,15 -8.4815156,0 -15.3571421,-6.71573 -15.3571421,-15 0,-8.28427 6.8756265,-15 15.3571421,-15 8.4815159,0 15.3571429,6.71573 15.3571429,15 z"
         sodipodi:ry="15"
         sodipodi:rx="15.357142"
         sodipodi:cy="300.21933"
         sodipodi:cx="4.6428571"
         id="path3761-8"
         style="fill:#ffffff;fill-opacity:1;stroke:none"
         sodipodi:type="arc" />
      <path
         inkscape:connector-curvature="0"
         id="path3822"
         d="m -306.44462,193.11687 c 0,0 2.97954,-8.67277 13.11001,-8.67277 10.13045,0 10.13045,9.06699 10.13045,9.06699 l 0,-15.76868 c 0,0 -7.15091,-6.30746 -14.59978,-5.12481 -7.44886,1.18265 -11.02431,8.67277 -11.02431,8.67277 z"
         style="fill:#ffccaa;fill-opacity:1;stroke:none" />
      <path
         transform="matrix(0.44392238,0,0,0.45155741,-311.40642,17.438971)"
         d="m 48.487322,385.15643 c 0,6.13681 -5.200998,11.11168 -11.616755,11.11168 -6.415756,0 -11.616754,-4.97487 -11.616754,-11.11168 0,-6.13681 5.200998,-11.11168 11.616754,-11.11168 6.415757,0 11.616755,4.97487 11.616755,11.11168 z"
         sodipodi:ry="11.111678"
         sodipodi:rx="11.616755"
         sodipodi:cy="385.15643"
         sodipodi:cx="36.870567"
         id="path3842"
         style="fill:#00aad4;fill-opacity:1;stroke:none"
         sodipodi:type="arc" />
      <path
         transform="matrix(0.25195595,0,0,0.26340849,-304.46789,90.045111)"
         d="m 48.487322,385.15643 c 0,6.13681 -5.200998,11.11168 -11.616755,11.11168 -6.415756,0 -11.616754,-4.97487 -11.616754,-11.11168 0,-6.13681 5.200998,-11.11168 11.616754,-11.11168 6.415757,0 11.616755,4.97487 11.616755,11.11168 z"
         sodipodi:ry="11.111678"
         sodipodi:rx="11.616755"
         sodipodi:cy="385.15643"
         sodipodi:cx="36.870567"
         id="path3842-2"
         style="fill:#00222b;fill-opacity:1;stroke:none"
         sodipodi:type="arc" />
      <path
         transform="matrix(0.44392238,0,0,0.45155741,-287.57301,15.766451)"
         d="m 48.487322,385.15643 c 0,6.13681 -5.200998,11.11168 -11.616755,11.11168 -6.415756,0 -11.616754,-4.97487 -11.616754,-11.11168 0,-6.13681 5.200998,-11.11168 11.616754,-11.11168 6.415757,0 11.616755,4.97487 11.616755,11.11168 z"
         sodipodi:ry="11.111678"
         sodipodi:rx="11.616755"
         sodipodi:cy="385.15643"
         sodipodi:cx="36.870567"
         id="path3842-0"
         style="fill:#00aad4;fill-opacity:1;stroke:none"
         sodipodi:type="arc" />
      <path
         transform="matrix(0.25195595,0,0,0.26340849,-280.63448,88.372591)"
         d="m 48.487322,385.15643 c 0,6.13681 -5.200998,11.11168 -11.616755,11.11168 -6.415756,0 -11.616754,-4.97487 -11.616754,-11.11168 0,-6.13681 5.200998,-11.11168 11.616754,-11.11168 6.415757,0 11.616755,4.97487 11.616755,11.11168 z"
         sodipodi:ry="11.111678"
         sodipodi:rx="11.616755"
         sodipodi:cy="385.15643"
         sodipodi:cx="36.870567"
         id="path3842-2-4"
         style="fill:#00222b;fill-opacity:1;stroke:none"
         sodipodi:type="arc" />
      <path
         inkscape:connector-curvature="0"
         id="path3902"
         d="m -289.77105,177.36335 0.92409,5.66501 -18.82121,-2.03237 z"
         style="fill:#483e37;fill-opacity:1;stroke:none" />
      <path
         inkscape:connector-curvature="0"
         id="path3902-2"
         d="m -277.77857,175.39588 -2.382,5.21915 20.53483,-2.18422 z"
         style="fill:#483e37;fill-opacity:1;stroke:none" />
      <path
         inkscape:connector-curvature="0"
         id="path3922"
         d="m -273.15661,219.79205 c -4.73881,0.27875 -16.44645,0.27875 -18.95523,-4.73881"
         style="fill:#ffccaa;fill-opacity:0;stroke:#d65e52;stroke-width:2.98027897;stroke-linecap:butt;stroke-linejoin:miter;stroke-miterlimit:4;stroke-opacity:1;stroke-dasharray:none" />
      <path
         inkscape:connector-curvature="0"
         id="path4107"
         d="m -309.94426,182.6109 c -8.47567,0.39422 -16.75422,0.59133 -16.75422,0.59133 l -0.78843,2.16819 -1.97109,-0.59132 -0.39421,-56.96433 -2.3653,1.77398 0.19711,58.34408 c 0,0 20.69638,-0.1971 21.68192,-0.1971 0.98554,0 3.35084,-5.12483 0.39422,-5.12483 z"
         style="fill:#241f1c;stroke:none" />
      <path
         transform="matrix(0.35121132,0,0,0.39859697,-344.07627,81.603991)"
         d="m 70.357145,260.57648 c 0,1.7752 -1.758881,3.21428 -3.928571,3.21428 -2.16969,0 -3.928572,-1.43908 -3.928572,-3.21428 0,-1.7752 1.758882,-3.21429 3.928572,-3.21429 2.16969,0 3.928571,1.43909 3.928571,3.21429 z"
         sodipodi:ry="3.2142856"
         sodipodi:rx="3.9285715"
         sodipodi:cy="260.57648"
         sodipodi:cx="66.428574"
         id="path4109"
         style="fill:#ff8080;fill-opacity:1;stroke:none"
         sodipodi:type="arc" />
      <path
         sodipodi:type="arc"
         style="fill:#ffcc00;fill-opacity:1;stroke:none"
         id="path4133"
         sodipodi:cx="66.428574"
         sodipodi:cy="260.57648"
         sodipodi:rx="3.9285715"
         sodipodi:ry="3.2142856"
         d="m 70.357145,260.57648 c 0,1.7752 -1.758881,3.21428 -3.928571,3.21428 -2.16969,0 -3.928572,-1.43908 -3.928572,-3.21428 0,-1.7752 1.758882,-3.21429 3.928572,-3.21429 2.16969,0 3.928571,1.43909 3.928571,3.21429 z"
         transform="matrix(0.35121132,0,0,0.39859697,-340.33121,81.603991)" />
      <path
         transform="matrix(0.35121132,0,0,0.39859697,-336.19193,81.603991)"
         d="m 70.357145,260.57648 c 0,1.7752 -1.758881,3.21428 -3.928571,3.21428 -2.16969,0 -3.928572,-1.43908 -3.928572,-3.21428 0,-1.7752 1.758882,-3.21429 3.928572,-3.21429 2.16969,0 3.928571,1.43909 3.928571,3.21429 z"
         sodipodi:ry="3.2142856"
         sodipodi:rx="3.9285715"
         sodipodi:cy="260.57648"
         sodipodi:cx="66.428574"
         id="path4135"
         style="fill:#00ff00;fill-opacity:1;stroke:none"
         sodipodi:type="arc" />
      <path
         style="fill:#483e37;fill-opacity:1;stroke:none"
         d="m -289.77105,177.36335 0.92409,5.66501 -18.82121,-2.03237 z"
         id="path4167"
         inkscape:connector-curvature="0" />
    </g>
    <g
       transform="matrix(1.7319427,0,0,1.7319427,1455.6116,-1164.9167)"
       id="g3377">
      <path
         style="fill:#ffccaa;fill-opacity:1;stroke:none"
         d="m -399.50542,610.24894 c -2.93352,3.90255 -11.73408,3.90255 -11.73408,6.13258 0,2.23002 7.12427,2.23002 7.12427,2.23002 0,0 -9.21965,18.95523 -5.0289,20.62775 4.19074,1.67252 19.27742,-16.16769 16.76298,-20.62775 -2.51445,-4.46005 -7.12427,-8.3626 -7.12427,-8.3626 z"
         id="path4257"
         inkscape:connector-curvature="0" />
      <path
         sodipodi:nodetypes="cccccccc"
         style="fill:#ffccaa;fill-opacity:1;stroke:none"
         d="m -456.70597,485.94601 -2.73906,10.45519 -29.72367,10.97053 39.7713,22.96251 39.49254,-11.32416 -27.77744,-21.25454 -3.00522,-13.75046 z"
         id="path4253"
         inkscape:connector-curvature="0" />
      <path
         inkscape:connector-curvature="0"
         id="path4251"
         d="m -456.70597,485.94601 -0.92716,7.66635 20.76918,7.8347 -3.82357,-17.44198 z"
         style="fill:#deaa87;stroke:none"
         sodipodi:nodetypes="ccccc" />
      <path
         style="fill:#aad400;stroke:none"
         d="m -496.46793,529.16336 8.4863,2.55429 15.07608,-0.87517 -8.10909,105.11743 66.84457,-0.72272 1.37003,-105.13542 22.5123,8.86368 12.58139,-10.86815 -25.80862,-16.72319 -13.39919,-7.07109 -20.00021,-7.97978 -2.13045,16.81863 -9.01667,5.56678 -13.89825,-22.24221 -20.78865,4.82604 -7.81404,15.60777 z"
         id="path4191"
         inkscape:connector-curvature="0"
         sodipodi:nodetypes="ccccccccccccccccc" />
      <path
         inkscape:connector-curvature="0"
         id="path4255"
         d="m -493.7505,608.01891 c 3.90255,3.90255 15.61019,3.90255 15.61019,6.13258 0,2.23003 -9.47762,2.23003 -9.47762,2.23003 0,0 12.26515,18.95522 6.69008,20.62774 -5.57507,1.67252 -25.64531,-16.16769 -22.30027,-20.62774 3.34504,-4.46006 9.47762,-8.36261 9.47762,-8.36261 z"
         style="fill:#ffccaa;fill-opacity:1;stroke:none" />
      <path
         sodipodi:nodetypes="ccccccccccc"
         inkscape:connector-curvature="0"
         id="path4177"
         d="m -469.99505,496.36521 25.22988,31.53734 -1.57687,102.49636 -44.15227,-35.47951 10.24963,-59.13252 -15.29041,16.09526 6.44274,56.92569 -18.30886,12.1695 -14.80535,-78.30906 27.40388,-35.99739 z"
         style="fill:#454837;stroke:none" />
      <path
         sodipodi:nodetypes="ccccccccccc"
         inkscape:connector-curvature="0"
         id="path4179"
         d="m -430.57337,496.36521 -10.24963,29.96047 -0.78844,100.9195 40.99855,-24.44144 -4.73061,-69.38215 12.32799,16.17448 -9.28631,58.92481 11.06127,14.26425 23.22398,-85.97889 -36.7298,-36.17229 z"
         style="fill:#454837;stroke:none" />
    </g>
    <g
       id="g4051">
      <path
         sodipodi:nodetypes="ccccccccccccccc"
         style="fill:#333333;stroke:#000000;stroke-width:1.79747808px;stroke-linecap:butt;stroke-linejoin:miter;stroke-opacity:1"
         d="m -1315.5525,-491.09266 41.7617,1.81562 58.1033,9.0787 23.6045,94.41782 -36.3147,36.31464 38.1303,29.05156 -7.2629,45.39314 -121.6537,5.44727 -103.4964,-3.63145 -9.0787,-45.39315 29.0517,-36.31463 -30.8673,-34.49882 18.1572,-83.52341 54.4718,-16.34167 z"
         id="path4519"
         inkscape:connector-curvature="0" />
      <path
         inkscape:connector-curvature="0"
         id="path4541"
         d="m -1314.0259,-481.11666 34.6462,1.63768 48.2035,8.1892 19.5826,85.16595 -30.1271,32.75598 31.6334,26.2049 -6.0253,40.94528 -100.9261,4.91341 -85.8623,-3.27572 -7.5318,-40.94512 24.1017,-32.75616 -25.6081,-31.1183 15.0636,-75.33914 45.1907,-14.74028 z"
         style="fill:#53676c;stroke:#000000;stroke-width:1.55492139px;stroke-linecap:butt;stroke-linejoin:miter;stroke-opacity:1"
         sodipodi:nodetypes="ccccccccccccccc" />
      <path
         transform="matrix(0.67405426,0,0,0.67405426,-1132.845,-1018.0708)"
         d="m -217.18279,885.18195 a 52.527931,46.972092 0 1 1 -105.05587,0 52.527931,46.972092 0 1 1 105.05587,0 z"
         sodipodi:ry="46.972092"
         sodipodi:rx="52.527931"
         sodipodi:cy="885.18195"
         sodipodi:cx="-269.71072"
         id="path4535"
         style="fill:#93aca7;fill-opacity:1;stroke:#2a383d;stroke-width:7.66666698;stroke-miterlimit:4;stroke-opacity:1;stroke-dasharray:none"
         sodipodi:type="arc" />
      <path
         sodipodi:type="arc"
         style="fill:#93aca7;fill-opacity:1;stroke:#2a383d;stroke-width:7.66666698;stroke-miterlimit:4;stroke-opacity:1;stroke-dasharray:none"
         id="path4537"
         sodipodi:cx="-269.71072"
         sodipodi:cy="885.18195"
         sodipodi:rx="52.527931"
         sodipodi:ry="46.972092"
         d="m -217.18279,885.18195 a 52.527931,46.972092 0 1 1 -105.05587,0 52.527931,46.972092 0 1 1 105.05587,0 z"
         transform="matrix(0.67405426,0,0,0.67405426,-1131.0292,-932.73165)" />
    </g>
    <g
       id="g4000">
      <path
         inkscape:connector-curvature="0"
         id="path4521"
         d="m -1651.462,-394.85903 35.4067,-2.72372 39.038,-89.87847 41.7619,7.26288 -18.1574,121.65375 34.4988,5.44725 -5.4471,70.81328 -74.4449,10.89451 -34.4988,-50.84041 -41.7617,52.65605 -72.6291,-14.52579 -9.0785,-63.55055 39.9459,-9.07853 -18.1573,-116.20659 43.5776,-16.34167 z"
         style="fill:#333333;stroke:#000000;stroke-width:1.79747808px;stroke-linecap:butt;stroke-linejoin:miter;stroke-opacity:1"
         sodipodi:nodetypes="cccccccccccccccc" />
      <path
         sodipodi:nodetypes="cccccccccccccccc"
         style="fill:#536c5d;stroke:#000000;stroke-width:0.87618577px;stroke-linecap:butt;stroke-linejoin:miter;stroke-opacity:1"
         d="m -1643.7374,-366.38249 25.5384,-0.89731 28.1577,-29.60823 30.1223,2.39262 -13.0966,40.07568 24.8836,1.7946 -3.929,23.32767 -53.6962,3.58884 -24.8836,-16.74818 -30.1223,17.3462 -52.3864,-4.78506 -6.5484,-20.93505 28.8127,-2.99082 -13.0966,-38.28126 31.4318,-5.38326 z"
         id="path4565"
         inkscape:connector-curvature="0" />
    </g>
    <g
       id="g4047">
      <path
         inkscape:connector-curvature="0"
         id="path4517"
         d="m -1035.9305,-483.82978 30.8673,-1.81581 63.55042,168.86271 -25.42012,19.97304 -29.05156,-47.20896 -14.52594,1.8158 1.8158,76.26053 -43.5775,-27.23592 -36.3145,25.42011 7.2629,-72.62908 -16.3416,-1.81564 -23.6045,47.20897 -21.7886,-29.05174 61.7347,-161.59982 z"
         style="fill:#333333;stroke:#000000;stroke-width:1.79747808px;stroke-linecap:butt;stroke-linejoin:miter;stroke-opacity:1" />
      <path
         style="fill:#53676c;stroke:#000000;stroke-width:0.99278092px;stroke-linecap:butt;stroke-linejoin:miter;stroke-opacity:1"
         d="m -1039.3202,-462.00131 20.0411,-0.85326 41.26133,79.33959 -16.50444,9.38428 -18.86239,-22.18089 -9.4312,0.85309 1.179,35.83076 -28.2934,-12.7968 -23.5779,11.94371 4.7155,-34.12458 -10.6099,-0.85309 -15.3255,22.18088 -14.1469,-13.64987 40.0823,-75.92708 z"
         id="path4567"
         inkscape:connector-curvature="0" />
    </g>
    <g
       id="g4008">
      <path
         inkscape:connector-curvature="0"
         id="path4529"
         d="m -1751.327,402.24524 47.2089,-1.81586 5.4473,21.78871 23.6045,0 0,114.39091 -18.1574,1.81564 -34.4989,34.4988 -25.4201,-36.31444 -23.6044,0 1.8158,-118.02237 16.3414,0 z"
         style="fill:#333333;fill-opacity:1;stroke:#000000;stroke-width:1.79747808px;stroke-linecap:butt;stroke-linejoin:miter;stroke-opacity:1" />
      <path
         style="fill:#333333;fill-opacity:1;stroke:#000000;stroke-width:1.79747808px;stroke-linecap:butt;stroke-linejoin:miter;stroke-opacity:1"
         d="m -1557.0443,400.42938 47.209,-1.81562 5.4472,21.7887 23.6043,0 0,114.39072 -18.1572,1.81582 -34.4988,34.4988 -25.4201,-36.31462 -23.6045,0 1.8156,-118.02218 16.3416,0 z"
         id="path4531"
         inkscape:connector-curvature="0" />
      <rect
         ry="0.38654613"
         rx="0.72856915"
         y="447.49237"
         x="-1698.6709"
         height="12.710089"
         width="150.70534"
         id="rect4569"
         style="fill:#333333;fill-opacity:1;stroke:none" />
      <rect
         ry="0.38654613"
         rx="0.72856915"
         y="494.92023"
         x="-1707.7495"
         height="10.894362"
         width="179.75697"
         id="rect4571"
         style="fill:#333333;fill-opacity:1;stroke:none" />
      <path
         style="fill:#917c6f;fill-opacity:1;stroke:#000000;stroke-width:1.40829313px;stroke-linecap:butt;stroke-linejoin:miter;stroke-opacity:1"
         d="m -1746.1311,417.60576 36.9875,-1.42257 4.2677,17.07116 18.4935,0 0,89.62322 -14.2257,1.42248 -27.0293,27.02926 -19.9162,-28.45174 -18.4937,0 1.4225,-92.46837 12.8033,0 z"
         id="path4581"
         inkscape:connector-curvature="0" />
      <path
         inkscape:connector-curvature="0"
         id="path4583"
         d="m -1550.3364,417.99901 36.9872,-1.42266 4.2679,17.07115 18.4936,0 0,89.62314 -14.2258,1.42257 -27.0292,27.02935 -19.9165,-28.45192 -18.4935,0 1.4225,-92.46837 12.8033,0 z"
         style="fill:#917c6f;fill-opacity:1;stroke:#000000;stroke-width:1.40829313px;stroke-linecap:butt;stroke-linejoin:miter;stroke-opacity:1" />
    </g>
    <g
       id="g4016">
      <path
         inkscape:connector-curvature="0"
         id="path4553"
         d="m -1054.0878,389.53505 c -3.6314,21.78866 -18.1572,41.7617 -25.4201,63.55039 -7.263,21.78888 -18.1574,112.57517 0,159.7841 18.1573,47.20883 34.4988,43.57737 47.2088,-1.81583 12.7102,-45.3931 23.6045,-139.81086 -21.7887,-221.51866 z"
         style="fill:#333333;fill-opacity:1;stroke:#000000;stroke-width:1.79747808px;stroke-linecap:butt;stroke-linejoin:miter;stroke-opacity:1" />
      <path
         style="fill:#333333;fill-opacity:1;stroke:#000000;stroke-width:1.74967051px;stroke-linecap:butt;stroke-linejoin:miter;stroke-opacity:1"
         d="m -926.55418,385.90361 c 3.44074,21.78864 17.20421,41.76168 24.08585,63.55037 6.88164,21.78887 17.20422,112.57516 0,159.7841 -17.2042,47.20883 -32.68803,43.57736 -44.73096,-1.81583 -12.0431,-45.39311 -22.36566,-139.81086 20.64511,-221.51864 z"
         id="path4555"
         inkscape:connector-curvature="0" />
      <rect
         style="fill:#333333;fill-opacity:1;stroke:none"
         id="rect4577"
         width="150.70534"
         height="12.710089"
         x="-1074.0605"
         y="489.25409"
         rx="0.72856915"
         ry="0.38654613" />
      <rect
         style="fill:#333333;fill-opacity:1;stroke:none"
         id="rect4579"
         width="179.75697"
         height="10.894362"
         x="-1083.1392"
         y="536.68201"
         rx="0.72856915"
         ry="0.38654613" />
      <path
         style="fill:#7c916f;fill-opacity:1;stroke:#000000;stroke-width:1.46189189px;stroke-linecap:butt;stroke-linejoin:miter;stroke-opacity:1"
         d="m -1042.6628,412.29817 c -2.9534,17.72079 -14.7674,33.96492 -20.6744,51.68571 -5.9069,17.7208 -14.7672,91.55744 0,129.95249 14.7674,38.39523 28.0581,35.44178 38.3952,-1.47668 10.3371,-36.91837 19.1974,-113.70846 -17.7208,-180.16152 z"
         id="path4585"
         inkscape:connector-curvature="0" />
      <path
         inkscape:connector-curvature="0"
         id="path4587"
         d="m -935.34474,409.34472 c 2.79849,17.7208 13.99229,33.96491 19.58909,51.68571 5.59699,17.7208 13.99229,91.55744 0,129.95249 -13.9921,38.39523 -26.58524,35.44159 -36.37969,-1.47659 -9.79463,-36.91846 -18.18994,-113.70864 16.7906,-180.16161 z"
         style="fill:#7c916f;fill-opacity:1;stroke:#000000;stroke-width:1.42300999px;stroke-linecap:butt;stroke-linejoin:miter;stroke-opacity:1" />
    </g>
    <g
       id="g4024">
      <path
         sodipodi:nodetypes="cccccccc"
         inkscape:connector-curvature="0"
         id="path4543"
         d="m -1364.6868,367.26987 -17.0611,24.73851 -19.6202,-7.67739 18.7671,68.2445 33.2694,0 17.914,-68.2445 -18.7671,8.53048 z"
         style="fill:#333333;fill-opacity:1;stroke:#000000;stroke-width:0.84448266px;stroke-linecap:butt;stroke-linejoin:miter;stroke-opacity:1" />
      <path
         style="fill:#333333;fill-opacity:1;stroke:#000000;stroke-width:0.84448266px;stroke-linecap:butt;stroke-linejoin:miter;stroke-opacity:1"
         d="m -1364.6868,476.21337 -17.0611,24.73874 -19.6202,-7.67757 18.7671,68.24447 33.2694,0 17.914,-68.24447 -18.7671,8.53062 z"
         id="path4547"
         inkscape:connector-curvature="0"
         sodipodi:nodetypes="cccccccc" />
      <path
         sodipodi:nodetypes="cccccccc"
         inkscape:connector-curvature="0"
         id="path4549"
         d="m -1206.7185,367.26987 -17.0611,24.73851 -19.6203,-7.67739 18.7672,68.2445 33.2692,0 17.9142,-68.2445 -18.7673,8.53048 z"
         style="fill:#333333;fill-opacity:1;stroke:#000000;stroke-width:0.84448266px;stroke-linecap:butt;stroke-linejoin:miter;stroke-opacity:1" />
      <path
         style="fill:#333333;fill-opacity:1;stroke:#000000;stroke-width:0.84448266px;stroke-linecap:butt;stroke-linejoin:miter;stroke-opacity:1"
         d="m -1204.9028,472.58191 -17.0611,24.73874 -19.6202,-7.67757 18.7672,68.24446 33.2692,0 17.9142,-68.24446 -18.7673,8.53062 z"
         id="path4551"
         inkscape:connector-curvature="0"
         sodipodi:nodetypes="cccccccc" />
      <rect
         style="fill:#333333;fill-opacity:1;stroke:none"
         id="rect4573"
         width="150.70534"
         height="12.710089"
         x="-1366.3927"
         y="412.99353"
         rx="0.72856915"
         ry="0.38654613" />
      <rect
         style="fill:#333333;fill-opacity:1;stroke:none"
         id="rect4575"
         width="179.75697"
         height="10.894362"
         x="-1377.2871"
         y="522.15625"
         rx="0.72856915"
         ry="0.38654613" />
      <path
         style="fill:#536c67;fill-opacity:1;stroke:#000000;stroke-width:0.67823285px;stroke-linecap:butt;stroke-linejoin:miter;stroke-opacity:1"
         d="m -1364.7283,394.42258 -13.7023,19.86843 -15.7578,-6.16612 15.0726,54.8096 26.7197,0 14.3875,-54.8096 -15.0726,6.8513 z"
         id="path4589"
         inkscape:connector-curvature="0"
         sodipodi:nodetypes="cccccccc" />
      <path
         sodipodi:nodetypes="cccccccc"
         inkscape:connector-curvature="0"
         id="path4591"
         d="m -1364.7283,503.70762 -13.7023,19.86842 -15.7578,-6.16603 15.0726,54.8096 26.7197,0 14.3875,-54.8096 -15.0726,6.85121 z"
         style="fill:#536c67;fill-opacity:1;stroke:#000000;stroke-width:0.67823285px;stroke-linecap:butt;stroke-linejoin:miter;stroke-opacity:1" />
      <path
         style="fill:#536c67;fill-opacity:1;stroke:#000000;stroke-width:0.67823285px;stroke-linecap:butt;stroke-linejoin:miter;stroke-opacity:1"
         d="m -1206.9913,394.42258 -13.7024,19.86843 -15.7576,-6.16612 15.0726,54.8096 26.7195,0 14.3876,-54.8096 -15.0726,6.8513 z"
         id="path4593"
         inkscape:connector-curvature="0"
         sodipodi:nodetypes="cccccccc" />
      <path
         sodipodi:nodetypes="cccccccc"
         inkscape:connector-curvature="0"
         id="path4595"
         d="m -1205.533,498.97539 -13.7024,19.86842 -15.7577,-6.16603 15.0727,54.8094 26.7195,0 14.3876,-54.8094 -15.0726,6.8512 z"
         style="fill:#536c67;fill-opacity:1;stroke:#000000;stroke-width:0.67823285px;stroke-linecap:butt;stroke-linejoin:miter;stroke-opacity:1" />
    </g>
    <g
       id="g4004">
      <path
         inkscape:connector-curvature="0"
         id="path4559"
         d="m -1755.151,-93.284451 5.4124,104.188111 41.9459,2.7061 13.5309,127.19064 28.4149,0 9.4716,-32.47415 17.5902,0 5.4123,33.82729 29.7681,-1.35314 12.1779,-129.89674 39.2397,-2.7062799 8.1185,-110.9534701 -24.3557,2.70611 -1.3531,12.17791 -55.4767,1.353137 0,9.471635 -60.8892,0 -1.353,-9.471635 -39.2396,-1.353137 1.3529,-8.11849 z"
         style="fill:#535d6c;stroke:#000000;stroke-width:1.33949244px;stroke-linecap:butt;stroke-linejoin:miter;stroke-opacity:1" />
      <path
         inkscape:connector-curvature="0"
         id="path4597"
         d="m -1679.0612,26.36899 4.4509,32.33626 16.3198,0 4.4509,36.79672 16.3201,0 4.4507,-39.02666 14.8364,0 5.9345,-34.56659 -20.7709,-1.11515 -1.4836,16.72571 -23.7381,3.34511 0,-16.72553 z"
         style="fill:#93aca7;stroke:#000000;stroke-width:1.55828702;stroke-opacity:1" />
    </g>
    <g
       id="g4042">
      <path
         sodipodi:nodetypes="ccccccccccccccccccccc"
         style="fill:#333333;stroke:#000000;stroke-width:1.79747808px;stroke-linecap:butt;stroke-linejoin:miter;stroke-opacity:1"
         d="m -1471.7051,-0.84644987 43.5776,92.60211987 -1.8158,59.91911 36.3146,19.97286 38.1303,0 12.71,-43.57735 23.6044,0 7.2629,45.39315 39.9461,-1.8158 49.0246,-19.97286 -3.6314,-58.1033 39.946,-68.99764 -49.0247,-58.103301 5.4472,-81.707779 -70.8133,-18.15722 -10.8945,23.60448 -45.3931,3.63145 -27.236,-27.23593 -52.656,21.78867 16.3416,74.444887 z"
         id="path4525"
         inkscape:connector-curvature="0" />
      <path
         inkscape:connector-curvature="0"
         id="path4561"
         d="m -1432.0036,2.2186001 31.7171,67.3986099 -1.3217,43.61096 26.431,14.53691 27.7523,0 9.2508,-31.71704 17.1801,0 5.2862,33.03855 29.0738,-1.32151 35.6816,-14.53691 -2.643,-42.28945 29.0738,-50.21848 -35.6815,-42.28945 3.9647,-59.469386 -51.5402,-13.215422 -7.9292,17.180114 -33.0386,2.643015 -19.8233,-19.823129 -38.3245,15.858611 11.8937,54.183187 z"
         style="fill:#676c53;stroke:#000000;stroke-width:1.30825984px;stroke-linecap:butt;stroke-linejoin:miter;stroke-opacity:1"
         sodipodi:nodetypes="ccccccccccccccccccccc" />
      <path
         style="fill:#93aca7;stroke:#000000;stroke-width:1.79747808;stroke-opacity:1"
         d="m -1293.8384,27.95796 -4.5007,-43.02013 -16.3201,0.0198 -4.5077,-48.954863 -16.3198,0.0198 -4.3907,51.932373 -14.8364,0.018 -5.8812,45.99946 20.7726,1.45955 1.4579,-22.2562 23.7328,-4.4784199 0.025,22.2543899 z"
         id="path4599"
         inkscape:connector-curvature="0" />
    </g>
    <g
       id="g4036">
      <path
         sodipodi:nodetypes="ccccccccccccccccccccc"
         inkscape:connector-curvature="0"
         id="path4527"
         d="m -904.53866,137.88525 -15.80487,-70.31501 -45.7992,-49.18925 -8.75875,-63.805082 -48.72212,-106.475228 -12.4047,43.66542 -23.6039,0.16537 -7.5804,-45.3412 -51.2777,106.25791 -3.7756,70.25731 -44.3943,61.77392 -14.1307,60.09455 28.7005,27.23359 30.0208,-32.26006 46.1107,13.56935 12.7338,64.8397 63.56948,0.30126 7.21812,-65.72551 31.40788,-24.79675 19.52025,37.15063 z"
         style="fill:#333333;stroke:#000000;stroke-width:1.79747808px;stroke-linecap:butt;stroke-linejoin:miter;stroke-opacity:1" />
      <path
         style="fill:#483e37;stroke:#000000;stroke-width:1.26927114px;stroke-linecap:butt;stroke-linejoin:miter;stroke-opacity:1"
         d="m -945.99965,107.02021 -11.16054,-49.65228 -32.34059,-34.73446 -6.18494,-45.05523 -34.40458,-75.186344 -8.7595,30.83375 -16.6677,0.116843 -5.3529,-32.017223 -36.2093,75.033024 -2.666,49.61148 -31.3485,43.62101 -9.9782,42.43523 20.2664,19.23067 21.1989,-22.77997 32.5606,9.58181 8.9921,45.78572 44.8888,0.21282 5.0971,-46.41142 22.17813,-17.50996 13.78415,26.23366 z"
         id="path4563"
         inkscape:connector-curvature="0"
         sodipodi:nodetypes="ccccccccccccccccccccc" />
      <path
         inkscape:connector-curvature="0"
         id="path4601"
         d="m -1074.0815,67.53304 4.451,21.13403 16.3198,0 4.4509,24.04917 16.32,0 4.4509,-25.50675 14.8363,0 5.9345,-22.59161 -20.7708,-0.72869 -1.4836,10.93136 -23.7382,2.18627 0,-10.93136 z"
         style="fill:#93aca7;stroke:#000000;stroke-width:1.25977504;stroke-opacity:1" />
      <path
         style="fill:#93aca7;stroke:#000000;stroke-width:1.79774177;stroke-opacity:1"
         d="m -1074.0815,45.61099 4.451,-43.0379199 16.3198,0 4.4509,-48.9744481 16.32,0 4.4509,51.9426281 14.8363,0 5.9345,46.0060899 -20.7708,1.484 -1.4836,-22.26087 -23.7382,-4.45217 0,22.26086 z"
         id="path4603"
         inkscape:connector-curvature="0" />
    </g>
  </g>
</svg>
