<?xml version="1.0" encoding="UTF-8" standalone="no"?>
<!-- Created with Inkscape (http://www.inkscape.org/) -->

<svg
   xmlns:dc="http://purl.org/dc/elements/1.1/"
   xmlns:cc="http://creativecommons.org/ns#"
   xmlns:rdf="http://www.w3.org/1999/02/22-rdf-syntax-ns#"
   xmlns:svg="http://www.w3.org/2000/svg"
   xmlns="http://www.w3.org/2000/svg"
   xmlns:sodipodi="http://sodipodi.sourceforge.net/DTD/sodipodi-0.dtd"
   xmlns:inkscape="http://www.inkscape.org/namespaces/inkscape"
   width="64px"
   height="64px"
   id="svg3415"
   version="1.1"
   inkscape:version="0.48.2 r9819"
   sodipodi:docname="head_3.svg">
  <defs
     id="defs3417" />
  <sodipodi:namedview
     id="base"
     pagecolor="#ffffff"
     bordercolor="#666666"
     borderopacity="1.0"
     inkscape:pageopacity="0.0"
     inkscape:pageshadow="2"
     inkscape:zoom="2.75"
     inkscape:cx="32"
     inkscape:cy="32"
     inkscape:current-layer="layer1"
     showgrid="true"
     inkscape:document-units="px"
     inkscape:grid-bbox="true"
     inkscape:window-width="1366"
     inkscape:window-height="746"
     inkscape:window-x="1358"
     inkscape:window-y="-8"
     inkscape:window-maximized="0" />
  <metadata
     id="metadata3420">
    <rdf:RDF>
      <cc:Work
         rdf:about="">
        <dc:format>image/svg+xml</dc:format>
        <dc:type
           rdf:resource="http://purl.org/dc/dcmitype/StillImage" />
        <dc:title></dc:title>
      </cc:Work>
    </rdf:RDF>
  </metadata>
  <g
     id="layer1"
     inkscape:label="Layer 1"
     inkscape:groupmode="layer">
    <g
       transform="matrix(0.34437438,0,0,0.34437438,186.73956,-161.44208)"
       id="g3377">
      <path
         style="fill:#ffccaa;fill-opacity:1;stroke:none"
         d="m -399.50542,610.24894 c -2.93352,3.90255 -11.73408,3.90255 -11.73408,6.13258 0,2.23002 7.12427,2.23002 7.12427,2.23002 0,0 -9.21965,18.95523 -5.0289,20.62775 4.19074,1.67252 19.27742,-16.16769 16.76298,-20.62775 -2.51445,-4.46005 -7.12427,-8.3626 -7.12427,-8.3626 z"
         id="path4257"
         inkscape:connector-curvature="0" />
      <path
         sodipodi:nodetypes="cccccccc"
         style="fill:#ffccaa;fill-opacity:1;stroke:none"
         d="m -456.70597,485.94601 -2.73906,10.45519 -29.72367,10.97053 39.7713,22.96251 39.49254,-11.32416 -27.77744,-21.25454 -3.00522,-13.75046 z"
         id="path4253"
         inkscape:connector-curvature="0" />
      <path
         inkscape:connector-curvature="0"
         id="path4251"
         d="m -456.70597,485.94601 -0.92716,7.66635 20.76918,7.8347 -3.82357,-17.44198 z"
         style="fill:#deaa87;stroke:none"
         sodipodi:nodetypes="ccccc" />
      <path
         style="fill:#aad400;stroke:none"
         d="m -496.46793,529.16336 8.4863,2.55429 15.07608,-0.87517 -8.10909,105.11743 66.84457,-0.72272 1.37003,-105.13542 22.5123,8.86368 12.58139,-10.86815 -25.80862,-16.72319 -13.39919,-7.07109 -20.00021,-7.97978 -2.13045,16.81863 -9.01667,5.56678 -13.89825,-22.24221 -20.78865,4.82604 -7.81404,15.60777 z"
         id="path4191"
         inkscape:connector-curvature="0"
         sodipodi:nodetypes="ccccccccccccccccc" />
      <path
         inkscape:connector-curvature="0"
         id="path4255"
         d="m -493.7505,608.01891 c 3.90255,3.90255 15.61019,3.90255 15.61019,6.13258 0,2.23003 -9.47762,2.23003 -9.47762,2.23003 0,0 12.26515,18.95522 6.69008,20.62774 -5.57507,1.67252 -25.64531,-16.16769 -22.30027,-20.62774 3.34504,-4.46006 9.47762,-8.36261 9.47762,-8.36261 z"
         style="fill:#ffccaa;fill-opacity:1;stroke:none" />
      <path
         sodipodi:nodetypes="ccccccccccc"
         inkscape:connector-curvature="0"
         id="path4177"
         d="m -469.99505,496.36521 25.22988,31.53734 -1.57687,102.49636 -44.15227,-35.47951 10.24963,-59.13252 -15.29041,16.09526 6.44274,56.92569 -18.30886,12.1695 -14.80535,-78.30906 27.40388,-35.99739 z"
         style="fill:#454837;stroke:none" />
      <path
         sodipodi:nodetypes="ccccccccccc"
         inkscape:connector-curvature="0"
         id="path4179"
         d="m -430.57337,496.36521 -10.24963,29.96047 -0.78844,100.9195 40.99855,-24.44144 -4.73061,-69.38215 12.32799,16.17448 -9.28631,58.92481 11.06127,14.26425 23.22398,-85.97889 -36.7298,-36.17229 z"
         style="fill:#454837;stroke:none" />
    </g>
  </g>
</svg>
