<?xml version="1.0" encoding="UTF-8" standalone="no"?>
<!-- Created with Inkscape (http://www.inkscape.org/) -->

<svg
   xmlns:dc="http://purl.org/dc/elements/1.1/"
   xmlns:cc="http://creativecommons.org/ns#"
   xmlns:rdf="http://www.w3.org/1999/02/22-rdf-syntax-ns#"
   xmlns:svg="http://www.w3.org/2000/svg"
   xmlns="http://www.w3.org/2000/svg"
   xmlns:sodipodi="http://sodipodi.sourceforge.net/DTD/sodipodi-0.dtd"
   xmlns:inkscape="http://www.inkscape.org/namespaces/inkscape"
   width="64px"
   height="64px"
   id="svg3415"
   version="1.1"
   inkscape:version="0.48.2 r9819"
   sodipodi:docname="body_2.svg">
  <defs
     id="defs3417" />
  <sodipodi:namedview
     id="base"
     pagecolor="#ffffff"
     bordercolor="#666666"
     borderopacity="1.0"
     inkscape:pageopacity="0.0"
     inkscape:pageshadow="2"
     inkscape:zoom="2.75"
     inkscape:cx="32"
     inkscape:cy="32"
     inkscape:current-layer="layer1"
     showgrid="true"
     inkscape:document-units="px"
     inkscape:grid-bbox="true"
     inkscape:window-width="1366"
     inkscape:window-height="746"
     inkscape:window-x="1358"
     inkscape:window-y="-8"
     inkscape:window-maximized="0" />
  <metadata
     id="metadata3420">
    <rdf:RDF>
      <cc:Work
         rdf:about="">
        <dc:format>image/svg+xml</dc:format>
        <dc:type
           rdf:resource="http://purl.org/dc/dcmitype/StillImage" />
        <dc:title></dc:title>
      </cc:Work>
    </rdf:RDF>
  </metadata>
  <g
     id="layer1"
     inkscape:label="Layer 1"
     inkscape:groupmode="layer">
    <g
       id="g3386"
       transform="matrix(0.19659943,0,0,0.19659943,73.423383,-64.547584)">
      <path
         style="fill:#ffccaa;fill-opacity:1;stroke:none"
         d="m -274.17309,408.59296 c 0.85026,12.46226 -8.30659,25.16705 -8.30659,25.16705 0,0 -41.00133,18.1832 -46.57638,23.75827 -5.57505,5.57507 -18.95526,33.45041 -18.95526,42.37051 0,8.92011 28.05021,53.48102 28.05021,53.48102 0,0 6.90996,8.83287 10.41778,4.49968 9.4776,-11.70764 5.57508,-17.28271 -0.55749,-25.64531 -3.2969,-4.49576 -9.47762,-18.39771 -11.15016,-28.99035 -1.55543,-9.85094 11.7269,-24.43577 17.2827,-23.97279 20.07025,1.67253 30.10535,39.02547 25.64531,45.71555 -4.46004,6.69009 -8.3626,42.37052 -7.24759,46.83057 1.11501,4.46005 19.51276,1.11501 30.66287,3.34504 11.15016,2.23002 33.45043,-8.92011 33.45043,-8.92011 0,0 2.23002,-16.7252 -2.23008,-21.18525 -4.46004,-4.46005 -21.1852,-33.45041 -20.07019,-43.48552 1.11501,-10.03513 42.37046,-21.74277 42.37046,-21.74277 0,0 8.92013,-1.11501 12.26516,5.57507 3.34503,6.69008 -12.82262,42.37051 -13.93763,45.71555 -1.11501,3.34504 8.92007,8.92011 8.92007,8.92011 l 15.05268,-10.03512 c 0,0 9.42594,-18.10285 17.01217,-42.92802 2.28101,-7.46435 -17.56971,-34.00791 -25.37478,-36.23794 -7.80507,-2.23002 -44.01977,-10.56942 -47.36486,-15.02947 -3.34503,-4.46005 -9.72008,-24.47426 -10.63223,-28.41643 -1.00541,-4.34524 -28.7266,1.21066 -28.7266,1.21066 z"
         id="path4201"
         inkscape:connector-curvature="0"
         sodipodi:nodetypes="ccsscssssssscsscssccssssc" />
      <path
         sodipodi:nodetypes="ccccc"
         style="fill:#deaa87;stroke:none"
         d="m -273.97598,406.727 -0.88424,12.26708 33.44576,3.30562 -4.7361,-17.51363 z"
         id="path4203"
         inkscape:connector-curvature="0" />
      <path
         sodipodi:nodetypes="ccccccccccccccccc"
         inkscape:connector-curvature="0"
         id="path4183"
         d="m -335.77666,458.95907 25.17639,27.43724 7.40482,-5.19082 15.16314,89.72721 65.20708,-0.64095 14.41148,-88.34472 8.88579,2.96619 20.7335,-34.11117 -25.17638,-14.83094 -19.99303,-11.86476 -12.58819,-1.48309 -5.92386,16.31403 -31.10024,0.74155 -7.40483,-14.83094 -12.58819,1.48309 -26.65736,17.79714 z"
         style="fill:#006680;stroke:none" />
      <path
         inkscape:connector-curvature="0"
         id="path4193"
         d="m -298.67833,421.87679 27.59518,63.07468 61.49782,40.21012 -4.73061,20.49926 -68.59371,-44.94071 -28.38361,-70.17058 z"
         style="fill:#241f1c;stroke:none" />
      <path
         sodipodi:nodetypes="cssssc"
         inkscape:connector-curvature="0"
         id="path4205"
         d="m -320.30174,540.8013 c -8.3626,5.57506 -9.33231,19.45195 -6.69009,23.41528 3.34505,5.01757 11.15014,8.92011 15.61019,6.69008 4.46006,-2.23002 64.67079,7.24759 79.16596,-5.57507 4.86967,-4.30778 -5.40915,-52.18521 -17.28271,-49.06058 -31.77788,8.3626 -59.09571,17.2827 -70.80335,24.53029 z"
         style="fill:#918a6f;stroke:none" />
      <path
         inkscape:connector-curvature="0"
         id="path4207"
         d="m -251.94849,531.89069 c 0,0 173.017039,-48.32538 174.465648,-43.96225 1.448608,4.36313 -4.498069,7.04986 -1.979728,10.77287 2.518341,3.72302 9.955721,5.95533 4.607059,9.15588 -5.348663,3.20055 -173.092589,39.94456 -175.484629,37.88929 -2.39205,-2.05528 -6.05567,-13.51901 -1.60835,-13.85579 z"
         style="fill:#484537;stroke:none" />
      <path
         style="fill:#484537;stroke:none"
         d="m -248.5664,544.07095 c 0,0 176.992126,-29.94662 177.995398,-25.54579 1.003267,4.40083 -5.183003,6.43088 -3.05116,10.31354 2.131844,3.88267 9.307467,6.8 3.66459,9.3908 -5.642866,2.5908 -176.225958,21.76249 -178.399568,19.51949 -2.17361,-2.243 -4.66787,-13.79162 -0.20926,-13.67804 z"
         id="path4209"
         inkscape:connector-curvature="0" />
      <path
         transform="matrix(0.5519035,0,0,0.5519035,-608.53272,302.30806)"
         d="m 618.57145,413.79074 c 0,2.36694 -2.07868,4.28572 -4.64286,4.28572 -2.56418,0 -4.64286,-1.91878 -4.64286,-4.28572 0,-2.36693 2.07868,-4.28571 4.64286,-4.28571 2.56418,0 4.64286,1.91878 4.64286,4.28571 z"
         sodipodi:ry="4.2857141"
         sodipodi:rx="4.6428571"
         sodipodi:cy="413.79074"
         sodipodi:cx="613.92859"
         id="path4211"
         style="fill:#484537;fill-opacity:1;stroke:none"
         sodipodi:type="arc" />
      <path
         transform="matrix(0.5519035,0,0,0.5519035,-608.53272,302.30806)"
         d="m 624.28572,432.00504 c 0,2.16969 -1.59898,3.92857 -3.57143,3.92857 -1.97244,0 -3.57142,-1.75888 -3.57142,-3.92857 0,-2.16969 1.59898,-3.92858 3.57142,-3.92858 1.97245,0 3.57143,1.75889 3.57143,3.92858 z"
         sodipodi:ry="3.9285715"
         sodipodi:rx="3.5714285"
         sodipodi:cy="432.00504"
         sodipodi:cx="620.71429"
         id="path4213"
         style="fill:#484537;fill-opacity:1;stroke:none"
         sodipodi:type="arc" />
      <path
         transform="matrix(0.5519035,0,0,0.5519035,-608.53272,302.30806)"
         d="m 627.14284,450.93362 c 0,1.97245 -1.59898,3.57143 -3.57143,3.57143 -1.97244,0 -3.57143,-1.59898 -3.57143,-3.57143 0,-1.97244 1.59899,-3.57142 3.57143,-3.57142 1.97245,0 3.57143,1.59898 3.57143,3.57142 z"
         sodipodi:ry="3.5714285"
         sodipodi:rx="3.5714285"
         sodipodi:cy="450.93362"
         sodipodi:cx="623.57141"
         id="path4215"
         style="fill:#484537;fill-opacity:1;stroke:none"
         sodipodi:type="arc" />
      <path
         transform="matrix(0.5519035,0,0,0.5519035,-608.53272,302.30806)"
         d="m 628.57143,468.07648 c 0,1.97244 -1.59898,3.57143 -3.57143,3.57143 -1.97245,0 -3.57143,-1.59899 -3.57143,-3.57143 0,-1.97245 1.59898,-3.57143 3.57143,-3.57143 1.97245,0 3.57143,1.59898 3.57143,3.57143 z"
         sodipodi:ry="3.5714285"
         sodipodi:rx="3.5714285"
         sodipodi:cy="468.07648"
         sodipodi:cx="625"
         id="path4217"
         style="fill:#484537;fill-opacity:1;stroke:none"
         sodipodi:type="arc" />
      <path
         transform="matrix(0.5519035,0,0,0.5519035,-608.53272,302.30806)"
         d="m 605.00003,429.14789 c 0,1.7752 -1.27919,3.21428 -2.85715,3.21428 -1.57795,0 -2.85714,-1.43908 -2.85714,-3.21428 0,-1.7752 1.27919,-3.21429 2.85714,-3.21429 1.57796,0 2.85715,1.43909 2.85715,3.21429 z"
         sodipodi:ry="3.2142856"
         sodipodi:rx="2.8571429"
         sodipodi:cy="429.14789"
         sodipodi:cx="602.14288"
         id="path4219"
         style="fill:#484537;fill-opacity:1;stroke:none"
         sodipodi:type="arc" />
      <path
         transform="matrix(0.5519035,0,0,0.5519035,-608.53272,302.30806)"
         d="m 608.5714,446.29074 c 0,2.16969 -1.43908,3.92857 -3.21428,3.92857 -1.7752,0 -3.21429,-1.75888 -3.21429,-3.92857 0,-2.16969 1.43909,-3.92857 3.21429,-3.92857 1.7752,0 3.21428,1.75888 3.21428,3.92857 z"
         sodipodi:ry="3.9285715"
         sodipodi:rx="3.2142856"
         sodipodi:cy="446.29074"
         sodipodi:cx="605.35712"
         id="path4221"
         style="fill:#484537;fill-opacity:1;stroke:none"
         sodipodi:type="arc" />
      <path
         transform="matrix(0.5519035,0,0,0.5519035,-608.53272,302.30806)"
         d="m 610.71427,464.14789 c 0,2.16969 -2.07868,3.92857 -4.64286,3.92857 -2.56418,0 -4.64286,-1.75888 -4.64286,-3.92857 0,-2.16969 2.07868,-3.92857 4.64286,-3.92857 2.56418,0 4.64286,1.75888 4.64286,3.92857 z"
         sodipodi:ry="3.9285715"
         sodipodi:rx="4.6428571"
         sodipodi:cy="464.14789"
         sodipodi:cx="606.07141"
         id="path4223"
         style="fill:#484537;fill-opacity:1;stroke:none"
         sodipodi:type="arc" />
      <path
         transform="matrix(0.5519035,0,0,0.5519035,-608.53272,302.30806)"
         d="m 586.42857,439.50504 c 0,2.36693 -1.75888,4.28571 -3.92857,4.28571 -2.16969,0 -3.92857,-1.91878 -3.92857,-4.28571 0,-2.36694 1.75888,-4.28572 3.92857,-4.28572 2.16969,0 3.92857,1.91878 3.92857,4.28572 z"
         sodipodi:ry="4.2857141"
         sodipodi:rx="3.9285715"
         sodipodi:cy="439.50504"
         sodipodi:cx="582.5"
         id="path4225"
         style="fill:#484537;fill-opacity:1;stroke:none"
         sodipodi:type="arc" />
      <path
         transform="matrix(0.5519035,0,0,0.5519035,-608.53272,302.30806)"
         d="m 589.28569,455.21933 c 0,1.97245 -1.75888,3.57143 -3.92857,3.57143 -2.16969,0 -3.92857,-1.59898 -3.92857,-3.57143 0,-1.97245 1.75888,-3.57143 3.92857,-3.57143 2.16969,0 3.92857,1.59898 3.92857,3.57143 z"
         sodipodi:ry="3.5714285"
         sodipodi:rx="3.9285715"
         sodipodi:cy="455.21933"
         sodipodi:cx="585.35712"
         id="path4227"
         style="fill:#484537;fill-opacity:1;stroke:none"
         sodipodi:type="arc" />
      <path
         transform="matrix(0.5519035,0,0,0.5519035,-608.53272,302.30806)"
         d="m 571.42855,449.50504 c 0,1.97244 -1.59899,3.57142 -3.57143,3.57142 -1.97245,0 -3.57143,-1.59898 -3.57143,-3.57142 0,-1.97245 1.59898,-3.57143 3.57143,-3.57143 1.97244,0 3.57143,1.59898 3.57143,3.57143 z"
         sodipodi:ry="3.5714285"
         sodipodi:rx="3.5714285"
         sodipodi:cy="449.50504"
         sodipodi:cx="567.85712"
         id="path4229"
         style="fill:#484537;fill-opacity:1;stroke:none"
         sodipodi:type="arc" />
      <path
         transform="matrix(0.5519035,0,0,0.5519035,-608.53272,302.30806)"
         d="m 552.14287,457.00504 c 0,2.16969 -1.75889,3.92857 -3.92858,3.92857 -2.16969,0 -3.92857,-1.75888 -3.92857,-3.92857 0,-2.16969 1.75888,-3.92858 3.92857,-3.92858 2.16969,0 3.92858,1.75889 3.92858,3.92858 z"
         sodipodi:ry="3.9285715"
         sodipodi:rx="3.9285715"
         sodipodi:cy="457.00504"
         sodipodi:cx="548.21429"
         id="path4231"
         style="fill:#484537;fill-opacity:1;stroke:none"
         sodipodi:type="arc" />
      <path
         transform="matrix(0.5519035,0,0,0.5519035,-608.53272,302.30806)"
         d="m 533.57146,463.79074 c 0,4.73387 -3.99746,8.57143 -8.92858,8.57143 -4.93111,0 -8.92857,-3.83756 -8.92857,-8.57143 0,-4.73387 3.99746,-8.57143 8.92857,-8.57143 4.93112,0 8.92858,3.83756 8.92858,8.57143 z"
         sodipodi:ry="8.5714283"
         sodipodi:rx="8.9285717"
         sodipodi:cy="463.79074"
         sodipodi:cx="524.64288"
         id="path4233"
         style="fill:#484537;fill-opacity:1;stroke:none"
         sodipodi:type="arc" />
      <path
         transform="matrix(0.5519035,0,0,0.5519035,-608.53272,302.30806)"
         d="m 545.71427,441.29074 c 0,4.14214 -3.19797,7.5 -7.14286,7.5 -3.94489,0 -7.14286,-3.35786 -7.14286,-7.5 0,-4.14213 3.19797,-7.5 7.14286,-7.5 3.94489,0 7.14286,3.35787 7.14286,7.5 z"
         sodipodi:ry="7.5"
         sodipodi:rx="7.1428571"
         sodipodi:cy="441.29074"
         sodipodi:cx="538.57141"
         id="path4235"
         style="fill:#484537;fill-opacity:1;stroke:none"
         sodipodi:type="arc" />
      <path
         transform="matrix(0.5519035,0,0,0.5519035,-608.53272,302.30806)"
         d="m 553.57145,474.50504 c 0,3.15591 -2.87816,5.71428 -6.42857,5.71428 -3.5504,0 -6.42857,-2.55837 -6.42857,-5.71428 0,-3.15592 2.87817,-5.71429 6.42857,-5.71429 3.55041,0 6.42857,2.55837 6.42857,5.71429 z"
         sodipodi:ry="5.7142859"
         sodipodi:rx="6.4285712"
         sodipodi:cy="474.50504"
         sodipodi:cx="547.14288"
         id="path4237"
         style="fill:#484537;fill-opacity:1;stroke:none"
         sodipodi:type="arc" />
      <rect
         transform="matrix(0.99669874,-0.08118876,0.08118876,0.99669874,0,0)"
         ry="0.11868639"
         rx="0.22370222"
         y="496.17615"
         x="-157.41911"
         height="21.287706"
         width="6.3074689"
         id="rect4239"
         style="fill:#484537;fill-opacity:1;stroke:none" />
      <rect
         transform="matrix(0.97172394,-0.23611985,0.23611985,0.97172394,0,0)"
         ry="0.11868639"
         rx="0.22370222"
         y="465.5686"
         x="-256.54211"
         height="20.499273"
         width="7.8843355"
         id="rect4241"
         style="fill:#484537;fill-opacity:1;stroke:none" />
      <rect
         ry="0.11868639"
         rx="0.22370222"
         y="524.37317"
         x="-198.54726"
         height="13.403371"
         width="51.24818"
         id="rect4243"
         style="fill:#484537;fill-opacity:1;stroke:none" />
      <rect
         transform="matrix(0.99763033,-0.06880208,0.06880208,0.99763033,0,0)"
         ry="0.11868639"
         rx="0.22370222"
         y="497.99619"
         x="-129.84924"
         height="23.653008"
         width="7.8843355"
         id="rect4245"
         style="fill:#484537;fill-opacity:1;stroke:none" />
      <path
         transform="matrix(0.5519035,0,0,0.5519035,-598.28308,308.22131)"
         d="m 919.28571,320.57648 c 0,7.69253 -6.39593,13.92857 -14.28571,13.92857 -7.88978,0 -14.28571,-6.23604 -14.28571,-13.92857 0,-7.69254 6.39593,-13.92857 14.28571,-13.92857 7.88978,0 14.28571,6.23603 14.28571,13.92857 z"
         sodipodi:ry="13.928572"
         sodipodi:rx="14.285714"
         sodipodi:cy="320.57648"
         sodipodi:cx="905"
         id="path4247"
         style="fill:#484537;fill-opacity:1;stroke:none"
         sodipodi:type="arc" />
      <path
         transform="matrix(0.37253486,0,0,0.36793566,-436.15157,366.99996)"
         sodipodi:type="arc"
         style="fill:#ffffff;fill-opacity:1;stroke:none"
         id="path4249"
         sodipodi:cx="905"
         sodipodi:cy="320.57648"
         sodipodi:rx="14.285714"
         sodipodi:ry="13.928572"
         d="m 919.28571,320.57648 c 0,7.69253 -6.39593,13.92857 -14.28571,13.92857 -7.88978,0 -14.28571,-6.23604 -14.28571,-13.92857 0,-7.69254 6.39593,-13.92857 14.28571,-13.92857 7.88978,0 14.28571,6.23603 14.28571,13.92857 z" />
    </g>
  </g>
</svg>
