<?xml version="1.0" encoding="UTF-8" standalone="no"?>
<!-- Created with Inkscape (http://www.inkscape.org/) -->

<svg
   xmlns:dc="http://purl.org/dc/elements/1.1/"
   xmlns:cc="http://creativecommons.org/ns#"
   xmlns:rdf="http://www.w3.org/1999/02/22-rdf-syntax-ns#"
   xmlns:svg="http://www.w3.org/2000/svg"
   xmlns="http://www.w3.org/2000/svg"
   xmlns:sodipodi="http://sodipodi.sourceforge.net/DTD/sodipodi-0.dtd"
   xmlns:inkscape="http://www.inkscape.org/namespaces/inkscape"
   width="64px"
   height="64px"
   id="svg3415"
   version="1.1"
   inkscape:version="0.48.2 r9819"
   sodipodi:docname="body_1.svg">
  <defs
     id="defs3417" />
  <sodipodi:namedview
     id="base"
     pagecolor="#ffffff"
     bordercolor="#666666"
     borderopacity="1.0"
     inkscape:pageopacity="0.0"
     inkscape:pageshadow="2"
     inkscape:zoom="2.75"
     inkscape:cx="32"
     inkscape:cy="32"
     inkscape:current-layer="layer1"
     showgrid="true"
     inkscape:document-units="px"
     inkscape:grid-bbox="true"
     inkscape:window-width="1366"
     inkscape:window-height="746"
     inkscape:window-x="1358"
     inkscape:window-y="-8"
     inkscape:window-maximized="0" />
  <metadata
     id="metadata3420">
    <rdf:RDF>
      <cc:Work
         rdf:about="">
        <dc:format>image/svg+xml</dc:format>
        <dc:type
           rdf:resource="http://purl.org/dc/dcmitype/StillImage" />
        <dc:title></dc:title>
      </cc:Work>
    </rdf:RDF>
  </metadata>
  <g
     id="layer1"
     inkscape:label="Layer 1"
     inkscape:groupmode="layer">
    <g
       transform="matrix(0.25697842,0,0,0.25697842,189.99306,-61.498475)"
       id="g3934">
      <path
         sodipodi:nodetypes="ccsscssssssscsscssccssssc"
         inkscape:connector-curvature="0"
         id="path4195"
         d="m -620.57929,281.00153 c 2.23002,12.26515 -2.78755,17.28271 -2.78755,17.28271 0,0 -25.08777,1.67252 -30.66282,7.24758 -5.57506,5.57507 -41.25553,60.21073 -41.25553,69.13084 0,8.92011 40.14046,58.53821 40.14046,58.53821 0,0 1.11507,-18.39772 4.4601,-22.85778 3.34503,-4.46006 -17.2827,0 -17.2827,-5.57507 0,-5.57506 -10.59262,-20.07024 -12.26517,-30.66287 -1.55543,-9.85094 36.47508,-55.0267 35.12292,-49.6181 -3.34503,13.38017 16.16768,68.57333 11.70764,75.26341 -4.46004,6.69009 -22.30027,32.33539 -21.18526,36.79544 1.11501,4.46006 33.45043,11.15014 44.60054,13.38017 11.15016,2.23002 33.45041,-8.92011 33.45041,-8.92011 0,0 2.23002,-16.7252 -2.23008,-21.18525 -4.46004,-4.46006 -21.18518,-33.45041 -20.07017,-43.48553 1.11501,-10.03512 17.84015,-55.19317 17.84015,-55.19317 0,0 36.79547,26.76033 40.1405,33.45041 3.34503,6.69008 -35.6804,49.61809 -36.79541,52.96314 -1.11501,3.34504 5.01752,20.62775 5.01752,20.62775 l 10.59263,-29.54786 c 0,0 39.02548,-35.68043 39.02548,-43.48553 0,-7.80509 -49.06063,-50.73311 -56.86571,-52.96313 -7.80507,-2.23003 -20.07017,-0.55751 -23.41526,-5.01756 -3.34503,-4.46006 -2.22996,-18.95523 -6.69006,-18.95523 -4.46004,0 -10.59263,2.78753 -10.59263,2.78753 z"
         style="fill:#ffccaa;fill-opacity:1;stroke:none" />
      <path
         sodipodi:nodetypes="cccccccccccccccc"
         inkscape:connector-curvature="0"
         id="path4181"
         d="m -649.81511,300.59282 10.24962,29.17204 27.59518,5.51904 26.01831,-6.30747 3.94214,-31.53734 8.67278,1.57686 -7.09588,32.32578 -8.67278,57.55565 13.40336,21.2877 3.15374,18.92241 -41.39274,10.64385 -41.39276,-9.85541 3.15374,-25.22988 15.76865,-15.76867 -20.49929,-89.09299 z"
         style="fill:#483e37;stroke:none" />
      <path
         inkscape:connector-curvature="0"
         id="path4197"
         d="m -620.57929,281.00153 1.11501,11.15013 14.49519,3.34505 -2.23002,-16.72521 z"
         style="fill:#deaa87;stroke:none" />
    </g>
  </g>
</svg>
