<?xml version="1.0" encoding="UTF-8" standalone="no"?>
<!-- Created with Inkscape (http://www.inkscape.org/) -->

<svg
   xmlns:dc="http://purl.org/dc/elements/1.1/"
   xmlns:cc="http://creativecommons.org/ns#"
   xmlns:rdf="http://www.w3.org/1999/02/22-rdf-syntax-ns#"
   xmlns:svg="http://www.w3.org/2000/svg"
   xmlns="http://www.w3.org/2000/svg"
   xmlns:sodipodi="http://sodipodi.sourceforge.net/DTD/sodipodi-0.dtd"
   xmlns:inkscape="http://www.inkscape.org/namespaces/inkscape"
   width="64px"
   height="64px"
   id="svg3415"
   version="1.1"
   inkscape:version="0.48.2 r9819"
   sodipodi:docname="cockpit_1.svg">
  <defs
     id="defs3417" />
  <sodipodi:namedview
     id="base"
     pagecolor="#ffffff"
     bordercolor="#666666"
     borderopacity="1.0"
     inkscape:pageopacity="0.0"
     inkscape:pageshadow="2"
     inkscape:zoom="2.75"
     inkscape:cx="32"
     inkscape:cy="30.4502"
     inkscape:current-layer="g3361"
     showgrid="true"
     inkscape:document-units="px"
     inkscape:grid-bbox="true"
     inkscape:window-width="1366"
     inkscape:window-height="746"
     inkscape:window-x="1358"
     inkscape:window-y="-8"
     inkscape:window-maximized="0" />
  <metadata
     id="metadata3420">
    <rdf:RDF>
      <cc:Work
         rdf:about="">
        <dc:format>image/svg+xml</dc:format>
        <dc:type
           rdf:resource="http://purl.org/dc/dcmitype/StillImage" />
        <dc:title></dc:title>
      </cc:Work>
    </rdf:RDF>
  </metadata>
  <g
     id="layer1"
     inkscape:label="Layer 1"
     inkscape:groupmode="layer">
    <g
       id="g3361"
       transform="matrix(0.35207787,0,0,0.35207787,190.14382,-241.5528)">
      <path
         inkscape:connector-curvature="0"
         id="path4519"
         d="m -449.06963,703.3941 28.50667,1.23936 39.66145,6.19715 16.11247,64.44982 -24.78841,24.78847 26.02782,19.83067 -4.95768,30.98551 -83.04116,3.71829 -70.64695,-2.47883 -6.1971,-30.98549 19.8307,-24.78847 -21.0702,-23.54899 12.3943,-57.01331 37.18257,-11.15482 z"
         style="fill:#333333;stroke:#000000;stroke-width:1.22696364px;stroke-linecap:butt;stroke-linejoin:miter;stroke-opacity:1"
         sodipodi:nodetypes="ccccccccccccccc" />
      <path
         sodipodi:nodetypes="ccccccccccccccc"
         style="fill:#53676c;stroke:#000000;stroke-width:1.06139374px;stroke-linecap:butt;stroke-linejoin:miter;stroke-opacity:1"
         d="m -448.02757,710.20375 23.64961,1.11789 32.90382,5.58992 13.36718,58.13452 -20.56489,22.35933 21.59312,17.88753 -4.11298,27.94939 -68.89235,3.3539 -58.60996,-2.23605 -5.1412,-27.94923 16.45192,-22.35945 -17.48012,-21.24144 10.2824,-51.42671 30.84734,-10.06171 z"
         id="path4541"
         inkscape:connector-curvature="0" />
      <path
         sodipodi:type="arc"
         style="fill:#93aca7;fill-opacity:1;stroke:#2a383d;stroke-width:7.66666698;stroke-miterlimit:4;stroke-opacity:1;stroke-dasharray:none"
         id="path4535"
         sodipodi:cx="-269.71072"
         sodipodi:cy="885.18195"
         sodipodi:rx="52.527931"
         sodipodi:ry="46.972092"
         d="m -217.18279,885.18195 a 52.527931,46.972092 0 1 1 -105.05587,0 52.527931,46.972092 0 1 1 105.05587,0 z"
         transform="matrix(0.46011137,0,0,0.46011137,-324.35293,343.67732)" />
      <path
         transform="matrix(0.46011137,0,0,0.46011137,-323.11352,401.93009)"
         d="m -217.18279,885.18195 a 52.527931,46.972092 0 1 1 -105.05587,0 52.527931,46.972092 0 1 1 105.05587,0 z"
         sodipodi:ry="46.972092"
         sodipodi:rx="52.527931"
         sodipodi:cy="885.18195"
         sodipodi:cx="-269.71072"
         id="path4537"
         style="fill:#93aca7;fill-opacity:1;stroke:#2a383d;stroke-width:7.66666698;stroke-miterlimit:4;stroke-opacity:1;stroke-dasharray:none"
         sodipodi:type="arc" />
    </g>
  </g>
</svg>
