<?xml version="1.0" encoding="UTF-8" standalone="no"?>
<!-- Created with Inkscape (http://www.inkscape.org/) -->

<svg
   xmlns:dc="http://purl.org/dc/elements/1.1/"
   xmlns:cc="http://creativecommons.org/ns#"
   xmlns:rdf="http://www.w3.org/1999/02/22-rdf-syntax-ns#"
   xmlns:svg="http://www.w3.org/2000/svg"
   xmlns="http://www.w3.org/2000/svg"
   xmlns:sodipodi="http://sodipodi.sourceforge.net/DTD/sodipodi-0.dtd"
   xmlns:inkscape="http://www.inkscape.org/namespaces/inkscape"
   width="64px"
   height="64px"
   id="svg3415"
   version="1.1"
   inkscape:version="0.48.2 r9819"
   sodipodi:docname="fuselage_1.svg">
  <defs
     id="defs3417" />
  <sodipodi:namedview
     id="base"
     pagecolor="#ffffff"
     bordercolor="#666666"
     borderopacity="1.0"
     inkscape:pageopacity="0.0"
     inkscape:pageshadow="2"
     inkscape:zoom="2.75"
     inkscape:cx="32"
     inkscape:cy="30.4502"
     inkscape:current-layer="g3361"
     showgrid="true"
     inkscape:document-units="px"
     inkscape:grid-bbox="true"
     inkscape:window-width="1366"
     inkscape:window-height="746"
     inkscape:window-x="1358"
     inkscape:window-y="-8"
     inkscape:window-maximized="0" />
  <metadata
     id="metadata3420">
    <rdf:RDF>
      <cc:Work
         rdf:about="">
        <dc:format>image/svg+xml</dc:format>
        <dc:type
           rdf:resource="http://purl.org/dc/dcmitype/StillImage" />
        <dc:title></dc:title>
      </cc:Work>
    </rdf:RDF>
  </metadata>
  <g
     id="layer1"
     inkscape:label="Layer 1"
     inkscape:groupmode="layer">
    <g
       id="g3361"
       transform="matrix(0.35207787,0,0,0.35207787,190.14382,-241.5528)">
      <path
         inkscape:connector-curvature="0"
         id="path4525"
         d="m -516.3368,766.75013 21.32155,45.30829 -0.88841,29.31721 17.76796,9.77229 18.65635,0 6.21878,-21.32146 11.54917,0 3.5536,22.20994 19.54475,-0.88848 23.98675,-9.77229 -1.7768,-28.42873 19.54474,-33.75912 -23.98674,-28.42872 2.66519,-39.97796 -34.6475,-8.88396 -5.33039,11.54918 -22.20994,1.7768 -13.32598,-13.32598 -25.76352,10.66074 7.99557,36.42438 z"
         style="fill:#333333;stroke:#000000;stroke-width:0.87946892px;stroke-linecap:butt;stroke-linejoin:miter;stroke-opacity:1"
         sodipodi:nodetypes="ccccccccccccccccccccc" />
      <path
         sodipodi:nodetypes="ccccccccccccccccccccc"
         style="fill:#676c53;stroke:#000000;stroke-width:0.64010459px;stroke-linecap:butt;stroke-linejoin:miter;stroke-opacity:1"
         d="m -496.91174,768.24978 15.51849,32.97678 -0.64662,21.33795 12.93208,7.11264 13.57866,0 4.52622,-15.51852 8.40585,0 2.58641,16.16502 14.22527,-0.6465 17.45829,-7.11264 -1.29321,-20.69137 14.22527,-24.57082 -17.45828,-20.69138 1.9398,-29.09717 -25.21753,-6.46599 -3.87961,8.40588 -16.16508,1.29315 -9.69906,-9.69903 -18.75149,7.75923 5.81943,26.5107 z"
         id="path4561"
         inkscape:connector-curvature="0" />
      <path
         inkscape:connector-curvature="0"
         id="path4599"
         d="m -429.31034,780.84351 -2.20215,-21.04881 -7.98502,0.01 -2.20551,-23.95255 -7.985,0.01 -2.14829,25.40945 -7.25909,0.009 -2.87755,22.5066 10.16358,0.71412 0.71329,-10.88954 11.61203,-2.19117 0.0127,10.88856 z"
         style="fill:#93aca7;stroke:#000000;stroke-width:0.87946892;stroke-opacity:1" />
    </g>
  </g>
</svg>
