<?xml version="1.0" encoding="UTF-8" standalone="no"?>
<!-- Created with Inkscape (http://www.inkscape.org/) -->

<svg
   xmlns:dc="http://purl.org/dc/elements/1.1/"
   xmlns:cc="http://creativecommons.org/ns#"
   xmlns:rdf="http://www.w3.org/1999/02/22-rdf-syntax-ns#"
   xmlns:svg="http://www.w3.org/2000/svg"
   xmlns="http://www.w3.org/2000/svg"
   xmlns:sodipodi="http://sodipodi.sourceforge.net/DTD/sodipodi-0.dtd"
   xmlns:inkscape="http://www.inkscape.org/namespaces/inkscape"
   width="64px"
   height="64px"
   id="svg3415"
   version="1.1"
   inkscape:version="0.48.2 r9819"
   sodipodi:docname="cockpit_3.svg">
  <defs
     id="defs3417" />
  <sodipodi:namedview
     id="base"
     pagecolor="#ffffff"
     bordercolor="#666666"
     borderopacity="1.0"
     inkscape:pageopacity="0.0"
     inkscape:pageshadow="2"
     inkscape:zoom="2.75"
     inkscape:cx="32"
     inkscape:cy="30.4502"
     inkscape:current-layer="g3361"
     showgrid="true"
     inkscape:document-units="px"
     inkscape:grid-bbox="true"
     inkscape:window-width="1366"
     inkscape:window-height="746"
     inkscape:window-x="1358"
     inkscape:window-y="-8"
     inkscape:window-maximized="0" />
  <metadata
     id="metadata3420">
    <rdf:RDF>
      <cc:Work
         rdf:about="">
        <dc:format>image/svg+xml</dc:format>
        <dc:type
           rdf:resource="http://purl.org/dc/dcmitype/StillImage" />
        <dc:title></dc:title>
      </cc:Work>
    </rdf:RDF>
  </metadata>
  <g
     id="layer1"
     inkscape:label="Layer 1"
     inkscape:groupmode="layer">
    <g
       id="g3361"
       transform="matrix(0.35207787,0,0,0.35207787,190.14382,-241.5528)">
      <path
         style="fill:#333333;stroke:#000000;stroke-width:0.77456462px;stroke-linecap:butt;stroke-linejoin:miter;stroke-opacity:1"
         d="m -387.90319,823.35847 -6.81064,-30.29994 -19.73566,-21.19654 -3.7743,-27.49468 -20.99518,-45.88205 -5.34543,18.81617 -10.17132,0.0713 -3.26655,-19.53837 -22.09647,45.78845 -1.627,30.27503 -19.13027,26.61951 -6.08911,25.89576 12.36749,11.73546 12.93649,-13.90141 19.86995,5.84723 5.48725,27.94057 27.39319,0.12983 3.11039,-28.32223 13.53417,-10.68539 8.41162,16.00882 z"
         id="path4527"
         inkscape:connector-curvature="0"
         sodipodi:nodetypes="ccccccccccccccccccccc" />
      <path
         sodipodi:nodetypes="ccccccccccccccccccccc"
         inkscape:connector-curvature="0"
         id="path4563"
         d="m -405.76952,810.05823 -4.80926,-21.39604 -13.93613,-14.96771 -2.66519,-19.41511 -14.82554,-32.39909 -3.77461,13.28681 -7.18238,0.0504 -2.30665,-13.79683 -15.6032,32.33305 -1.14887,21.37848 -13.50865,18.79708 -4.29978,18.28607 8.73319,8.28684 9.13497,-9.81629 14.03096,4.1289 3.87477,19.7299 19.34343,0.0917 2.19637,-19.9995 9.55701,-7.54534 5.93979,11.30455 z"
         style="fill:#483e37;stroke:#000000;stroke-width:0.54695106px;stroke-linecap:butt;stroke-linejoin:miter;stroke-opacity:1" />
      <path
         style="fill:#93aca7;stroke:#000000;stroke-width:0.54285902;stroke-opacity:1"
         d="m -460.9622,793.04244 1.91797,9.10704 7.03256,0 1.91796,10.36319 7.03256,0 1.91798,-10.9913 6.39322,0 2.5573,-9.73508 -8.95052,-0.31402 -0.63934,4.71057 -10.22916,0.94205 0,-4.71049 z"
         id="path4601"
         inkscape:connector-curvature="0" />
      <path
         inkscape:connector-curvature="0"
         id="path4603"
         d="m -460.9622,783.59584 1.91797,-18.54573 7.03256,0 1.91796,-21.10399 7.03256,0 1.91798,22.38301 6.39322,0 2.5573,19.82482 -8.95052,0.63951 -0.63934,-9.59258 -10.22916,-1.91854 0,9.59259 z"
         style="fill:#93aca7;stroke:#000000;stroke-width:0.77467829;stroke-opacity:1" />
    </g>
  </g>
</svg>
