<?xml version="1.0" encoding="UTF-8" standalone="no"?>
<!-- Created with Inkscape (http://www.inkscape.org/) -->

<svg
   xmlns:dc="http://purl.org/dc/elements/1.1/"
   xmlns:cc="http://creativecommons.org/ns#"
   xmlns:rdf="http://www.w3.org/1999/02/22-rdf-syntax-ns#"
   xmlns:svg="http://www.w3.org/2000/svg"
   xmlns="http://www.w3.org/2000/svg"
   xmlns:sodipodi="http://sodipodi.sourceforge.net/DTD/sodipodi-0.dtd"
   xmlns:inkscape="http://www.inkscape.org/namespaces/inkscape"
   width="64px"
   height="64px"
   id="svg3415"
   version="1.1"
   inkscape:version="0.48.2 r9819"
   sodipodi:docname="fuselage_2.svg">
  <defs
     id="defs3417" />
  <sodipodi:namedview
     id="base"
     pagecolor="#ffffff"
     bordercolor="#666666"
     borderopacity="1.0"
     inkscape:pageopacity="0.0"
     inkscape:pageshadow="2"
     inkscape:zoom="2.75"
     inkscape:cx="32"
     inkscape:cy="30.4502"
     inkscape:current-layer="g3361"
     showgrid="true"
     inkscape:document-units="px"
     inkscape:grid-bbox="true"
     inkscape:window-width="1366"
     inkscape:window-height="746"
     inkscape:window-x="1358"
     inkscape:window-y="-8"
     inkscape:window-maximized="0" />
  <metadata
     id="metadata3420">
    <rdf:RDF>
      <cc:Work
         rdf:about="">
        <dc:format>image/svg+xml</dc:format>
        <dc:type
           rdf:resource="http://purl.org/dc/dcmitype/StillImage" />
        <dc:title></dc:title>
      </cc:Work>
    </rdf:RDF>
  </metadata>
  <g
     id="layer1"
     inkscape:label="Layer 1"
     inkscape:groupmode="layer">
    <g
       id="g3361"
       transform="matrix(0.35207787,0,0,0.35207787,190.14382,-241.5528)">
      <path
         style="fill:#333333;stroke:#000000;stroke-width:0.7920472px;stroke-linecap:butt;stroke-linejoin:miter;stroke-opacity:1"
         d="m -511.32563,712.52127 3.20034,61.60677 24.80275,1.60018 8.00089,75.20841 16.80186,0 5.60062,-19.20216 10.40115,0 3.20035,20.00213 17.60195,-0.79997 7.2008,-76.80859 23.20257,-1.60017 4.80052,-65.60725 -14.40158,1.60017 -0.80009,7.20083 -32.80364,0.80004 0,5.60064 -36.00398,0 -0.80009,-5.60064 -23.20256,-0.80004 0.80008,-4.80053 z"
         id="path4523"
         inkscape:connector-curvature="0" />
      <path
         inkscape:connector-curvature="0"
         id="path4557"
         d="m -511.32563,712.52127 3.20034,61.60677 24.80275,1.60018 8.00089,75.20841 16.80186,0 5.60062,-19.20216 10.40115,0 3.20035,20.00213 17.60195,-0.79997 7.2008,-76.80859 23.20257,-1.60017 4.80052,-65.60725 -14.40158,1.60017 -0.80009,7.20083 -32.80364,0.80004 0,5.60064 -36.00398,0 -0.80009,-5.60064 -23.20256,-0.80004 0.80008,-4.80053 z"
         style="fill:#333333;stroke:#000000;stroke-width:0.7920472px;stroke-linecap:butt;stroke-linejoin:miter;stroke-opacity:1" />
      <path
         style="fill:#535d6c;stroke:#000000;stroke-width:0.59023881px;stroke-linecap:butt;stroke-linejoin:miter;stroke-opacity:1"
         d="m -495.40869,724.59484 2.38493,45.90983 18.48318,1.1924 5.9623,56.04577 12.52086,0 4.17362,-14.30955 7.75101,0 2.38492,14.90577 13.11709,-0.59622 5.36608,-57.23817 17.2907,-1.1925 3.57739,-48.89095 -10.73215,1.19243 -0.59624,5.36612 -24.44548,0.59626 0,4.17361 -26.83041,0 -0.59624,-4.17361 -17.29069,-0.59626 0.59623,-3.57736 z"
         id="path4559"
         inkscape:connector-curvature="0" />
      <path
         style="fill:#93aca7;stroke:#000000;stroke-width:0.68664926;stroke-opacity:1"
         d="m -461.88028,777.31938 1.96127,14.24875 7.19128,0 1.96127,16.21428 7.19128,0 1.96126,-17.19689 6.53753,0 2.61501,-15.23151 -9.15254,-0.49138 -0.65376,7.37003 -10.46005,1.47399 0,-7.36995 z"
         id="path4597"
         inkscape:connector-curvature="0" />
    </g>
  </g>
</svg>
