<?xml version="1.0" encoding="UTF-8" standalone="no"?>
<!-- Created with Inkscape (http://www.inkscape.org/) -->

<svg
   xmlns:dc="http://purl.org/dc/elements/1.1/"
   xmlns:cc="http://creativecommons.org/ns#"
   xmlns:rdf="http://www.w3.org/1999/02/22-rdf-syntax-ns#"
   xmlns:svg="http://www.w3.org/2000/svg"
   xmlns="http://www.w3.org/2000/svg"
   xmlns:sodipodi="http://sodipodi.sourceforge.net/DTD/sodipodi-0.dtd"
   xmlns:inkscape="http://www.inkscape.org/namespaces/inkscape"
   width="64px"
   height="64px"
   id="svg3415"
   version="1.1"
   inkscape:version="0.48.2 r9819"
   sodipodi:docname="head_2.svg">
  <defs
     id="defs3417" />
  <sodipodi:namedview
     id="base"
     pagecolor="#ffffff"
     bordercolor="#666666"
     borderopacity="1.0"
     inkscape:pageopacity="0.0"
     inkscape:pageshadow="2"
     inkscape:zoom="2.75"
     inkscape:cx="32"
     inkscape:cy="32"
     inkscape:current-layer="layer1"
     showgrid="true"
     inkscape:document-units="px"
     inkscape:grid-bbox="true"
     inkscape:window-width="1366"
     inkscape:window-height="746"
     inkscape:window-x="1358"
     inkscape:window-y="-8"
     inkscape:window-maximized="0" />
  <metadata
     id="metadata3420">
    <rdf:RDF>
      <cc:Work
         rdf:about="">
        <dc:format>image/svg+xml</dc:format>
        <dc:type
           rdf:resource="http://purl.org/dc/dcmitype/StillImage" />
        <dc:title></dc:title>
      </cc:Work>
    </rdf:RDF>
  </metadata>
  <g
     id="layer1"
     inkscape:label="Layer 1"
     inkscape:groupmode="layer">
    <g
       id="g3218"
       transform="matrix(0.46818554,0,0,0.46818554,310.00847,-79.239195)">
      <path
         style="fill:#ffccaa;stroke:none"
         d="m -611.4247,287.27467 c 8.0824,-0.69279 31.09864,-18.38331 33.67167,-36.33078 2.01401,-14.04817 -5.42339,-46.07214 -32.2301,-47.649 -26.80673,-1.57687 -40.10495,33.55993 -35.28821,47.74465 5.5915,16.46627 25.35836,36.89988 33.84664,36.23513 z"
         id="path4141"
         inkscape:connector-curvature="0"
         sodipodi:nodetypes="csssc" />
      <path
         inkscape:connector-curvature="0"
         id="path4145"
         d="m -621.07689,270.40406 c 1.83911,-0.74701 3.38781,-2.656 6.19484,-2.241 2.80704,0.41499 2.71029,1.57699 2.71029,1.57699 0,0 -0.0968,-2.24099 2.51663,-1.90899 2.61348,0.332 5.22691,2.40699 6.00128,1.90899 0.77438,-0.49799 -1.35514,5.644 -6.96921,4.81399 -5.61413,-0.82999 -10.45383,-4.14998 -10.45383,-4.14998 z"
         style="fill:#db6d5e;fill-opacity:1;stroke:none" />
      <path
         sodipodi:type="arc"
         style="fill:#ffffff;fill-opacity:1;stroke:none"
         id="path4147"
         sodipodi:cx="4.6428571"
         sodipodi:cy="300.21933"
         sodipodi:rx="15.357142"
         sodipodi:ry="15"
         d="m 20,300.21933 c 0,8.28427 -6.875627,15 -15.3571429,15 -8.4815156,0 -15.3571421,-6.71573 -15.3571421,-15 0,-8.28427 6.8756265,-15 15.3571421,-15 8.4815159,0 15.3571429,6.71573 15.3571429,15 z"
         transform="matrix(0.5519035,0,0,0.5519035,-602.11966,73.05428)" />
      <path
         sodipodi:type="arc"
         style="fill:#ffffff;fill-opacity:1;stroke:none"
         id="path4149"
         sodipodi:cx="4.6428571"
         sodipodi:cy="300.21933"
         sodipodi:rx="15.357142"
         sodipodi:ry="15"
         d="m 20,300.21933 c 0,8.28427 -6.875627,15 -15.3571429,15 -8.4815156,0 -15.3571421,-6.71573 -15.3571421,-15 0,-8.28427 6.8756265,-15 15.3571421,-15 8.4815159,0 15.3571429,6.71573 15.3571429,15 z"
         transform="matrix(0.5519035,0,0,0.5519035,-625.96979,74.631146)" />
      <path
         sodipodi:type="arc"
         style="fill:#918a6f;fill-opacity:1;stroke:none"
         id="path4151"
         sodipodi:cx="36.870567"
         sodipodi:cy="385.15643"
         sodipodi:rx="11.616755"
         sodipodi:ry="11.111678"
         d="m 48.487322,385.15643 c 0,6.13681 -5.200998,11.11168 -11.616755,11.11168 -6.415756,0 -11.616754,-4.97487 -11.616754,-11.11168 0,-6.13681 5.200998,-11.11168 11.616754,-11.11168 6.415757,0 11.616755,4.97487 11.616755,11.11168 z"
         transform="matrix(0.44392238,0,0,0.45155741,-639.78316,67.562548)" />
      <path
         sodipodi:type="arc"
         style="fill:#00222b;fill-opacity:1;stroke:none"
         id="path4153"
         sodipodi:cx="36.870567"
         sodipodi:cy="385.15643"
         sodipodi:rx="11.616755"
         sodipodi:ry="11.111678"
         d="m 48.487322,385.15643 c 0,6.13681 -5.200998,11.11168 -11.616755,11.11168 -6.415756,0 -11.616754,-4.97487 -11.616754,-11.11168 0,-6.13681 5.200998,-11.11168 11.616754,-11.11168 6.415757,0 11.616755,4.97487 11.616755,11.11168 z"
         transform="matrix(0.25195595,0,0,0.26340849,-632.84463,140.16869)" />
      <path
         sodipodi:type="arc"
         style="fill:#918a6f;fill-opacity:1;stroke:none"
         id="path4155"
         sodipodi:cx="36.870567"
         sodipodi:cy="385.15643"
         sodipodi:rx="11.616755"
         sodipodi:ry="11.111678"
         d="m 48.487322,385.15643 c 0,6.13681 -5.200998,11.11168 -11.616755,11.11168 -6.415756,0 -11.616754,-4.97487 -11.616754,-11.11168 0,-6.13681 5.200998,-11.11168 11.616754,-11.11168 6.415757,0 11.616755,4.97487 11.616755,11.11168 z"
         transform="matrix(0.44392238,0,0,0.45155741,-615.9497,65.890026)" />
      <path
         sodipodi:type="arc"
         style="fill:#00222b;fill-opacity:1;stroke:none"
         id="path4157"
         sodipodi:cx="36.870567"
         sodipodi:cy="385.15643"
         sodipodi:rx="11.616755"
         sodipodi:ry="11.111678"
         d="m 48.487322,385.15643 c 0,6.13681 -5.200998,11.11168 -11.616755,11.11168 -6.415756,0 -11.616754,-4.97487 -11.616754,-11.11168 0,-6.13681 5.200998,-11.11168 11.616754,-11.11168 6.415757,0 11.616755,4.97487 11.616755,11.11168 z"
         transform="matrix(0.25195595,0,0,0.26340849,-609.01117,138.49617)" />
      <path
         style="fill:#ffccaa;fill-opacity:1;stroke:none"
         d="m -636.08783,242.79353 c 0,0 3.20004,-8.59385 13.3272,-8.33515 10.12715,0.2587 9.89563,9.32273 9.89563,9.32273 l 0.40266,-15.76353 c 0,0 -6.98748,-6.48802 -14.46412,-5.49598 -7.47663,0.99207 -11.24222,8.38842 -11.24222,8.38842 z"
         id="path4159"
         inkscape:connector-curvature="0" />
      <path
         style="fill:#ffccaa;fill-opacity:1;stroke:none"
         d="m -611.89868,240.74515 c 0,0 3.92564,-8.28758 13.99324,-7.16088 10.06759,1.12669 9.05915,10.13742 9.05915,10.13742 l 1.75378,-15.67084 c 0,0 -6.40504,-7.06365 -13.93924,-6.71679 -7.53415,0.34687 -11.92045,7.39286 -11.92045,7.39286 z"
         id="path4161"
         inkscape:connector-curvature="0" />
      <path
         sodipodi:nodetypes="cccc"
         inkscape:connector-curvature="0"
         id="path4169"
         d="m -623.27258,229.45801 7.8229,2.70838 -19.01832,-2.25217 z"
         style="fill:#6c5353;fill-opacity:1;stroke:none" />
      <path
         style="fill:#6c5353;fill-opacity:1;stroke:none"
         d="m -596.08311,227.90975 6.83961,4.55127 -17.81421,-6.68387 z"
         id="path4171"
         inkscape:connector-curvature="0"
         sodipodi:nodetypes="cccc" />
      <path
         sodipodi:nodetypes="cccccccccccccccccccccccccccccccccccccccc"
         inkscape:connector-curvature="0"
         id="path4175"
         d="m -635.99042,270.90498 -12.26518,-21.74276 -0.55747,-35.68043 20.07024,-14.21642 29.82658,-3.62379 16.7252,15.05268 23.69404,-14.77393 25.92407,28.99035 -19.79148,31.77788 3.6238,-26.48156 -17.00398,-19.79149 -14.49514,5.2963 3.06626,6.96885 1.95126,10.31386 0,15.33144 -2.7875,14.49518 -10.31392,10.03512 5.85382,-13.10141 4.18133,-7.52634 -6.69006,3.90255 5.01752,-16.1677 -3.90251,3.06629 0,-19.79149 -1.67254,6.13258 -11.15009,-18.11897 -0.55754,5.57506 -17.84022,-12.5439 1.95131,6.96884 -11.42893,-2.50879 1.67254,4.46006 -8.08384,0.83626 -1.11501,9.19886 -3.06632,-5.01756 -4.73881,13.38016 -0.83624,-6.69008 -0.55754,22.85778 -3.06626,-4.46006 5.85382,13.10141 -4.46004,-0.83626 z"
         style="fill:#6c5353;fill-opacity:1;stroke:none" />
    </g>
  </g>
</svg>
