<?xml version="1.0" encoding="UTF-8" standalone="no"?>
<!-- Created with Inkscape (http://www.inkscape.org/) -->

<svg
   xmlns:dc="http://purl.org/dc/elements/1.1/"
   xmlns:cc="http://creativecommons.org/ns#"
   xmlns:rdf="http://www.w3.org/1999/02/22-rdf-syntax-ns#"
   xmlns:svg="http://www.w3.org/2000/svg"
   xmlns="http://www.w3.org/2000/svg"
   xmlns:sodipodi="http://sodipodi.sourceforge.net/DTD/sodipodi-0.dtd"
   xmlns:inkscape="http://www.inkscape.org/namespaces/inkscape"
   width="64px"
   height="64px"
   id="svg3415"
   version="1.1"
   inkscape:version="0.48.2 r9819"
   sodipodi:docname="New document 1">
  <defs
     id="defs3417" />
  <sodipodi:namedview
     id="base"
     pagecolor="#ffffff"
     bordercolor="#666666"
     borderopacity="1.0"
     inkscape:pageopacity="0.0"
     inkscape:pageshadow="2"
     inkscape:zoom="5.5"
     inkscape:cx="32"
     inkscape:cy="32"
     inkscape:current-layer="layer1"
     showgrid="true"
     inkscape:document-units="px"
     inkscape:grid-bbox="true"
     inkscape:window-width="1366"
     inkscape:window-height="746"
     inkscape:window-x="1358"
     inkscape:window-y="-8"
     inkscape:window-maximized="0" />
  <metadata
     id="metadata3420">
    <rdf:RDF>
      <cc:Work
         rdf:about="">
        <dc:format>image/svg+xml</dc:format>
        <dc:type
           rdf:resource="http://purl.org/dc/dcmitype/StillImage" />
        <dc:title></dc:title>
      </cc:Work>
    </rdf:RDF>
  </metadata>
  <g
     id="layer1"
     inkscape:label="Layer 1"
     inkscape:groupmode="layer">
    <g
       id="g3285"
       transform="matrix(0.49797566,0,0,0.49797566,161.75495,-146.76447)">
      <path
         sodipodi:nodetypes="csssssc"
         inkscape:connector-curvature="0"
         id="path3755-5"
         d="m -256.9071,410.00273 c 15.17735,-2.56241 21.68193,-0.19712 26.16614,-11.18591 4.48422,-10.98879 6.94807,-35.33168 6.94807,-42.42758 0,-14.1918 -7.0959,-35.47951 -33.90264,-37.05637 -26.80675,-1.57687 -38.63325,20.49927 -38.63325,35.4795 0,7.49012 3.94217,32.72 9.26409,44.64505 5.32193,11.92506 12.02362,10.5453 30.15759,10.54531 z"
         style="fill:#ffccaa;stroke:none" />
      <path
         sodipodi:nodetypes="cscccccccccccccccccccccccccccccccccccccccccc"
         inkscape:connector-curvature="0"
         id="path3757-8"
         d="m -289.23288,399.55598 c 0,0 -11.43229,-49.47421 -11.03807,-53.02216 0.39422,-3.54795 -1.57686,-9.65831 -1.57686,-9.65831 l 5.12481,-3.35084 -0.19711,-11.43228 6.8988,-0.39422 2.5624,-10.24964 7.68723,1.57687 4.92772,-4.33639 2.95663,5.51904 7.49012,-5.51903 3.54795,5.91325 7.49011,-5.51904 5.71615,4.53349 10.84096,-1.57686 3.15373,7.29301 6.89879,-1.57687 0.98555,7.49012 5.91325,0.78843 -2.95663,5.91325 4.33639,2.95663 -2.16819,5.71614 -1.57687,26.80674 -5.91325,27.39806 -11.23518,0.19711 14.1918,-39.81589 -6.50457,-0.78843 0,-9.46121 -4.92771,-1.57686 0.59132,-5.51904 -11.23518,-0.39422 -10.84096,-4.73059 -2.75951,2.36529 -7.09591,-1.18265 -7.29301,3.54795 -9.2641,-0.39422 -1.18265,3.94217 -5.12482,0.78844 1.37976,7.68722 -2.95662,3.74507 2.75951,10.84095 -2.75951,4.5335 14.38891,28.58071 z"
         style="fill:#241f1c;stroke:none" />
      <path
         transform="matrix(0.5519035,0,0,0.5519035,-251.38806,192.27401)"
         d="m 20,300.21933 c 0,8.28427 -6.875627,15 -15.3571429,15 -8.4815156,0 -15.3571421,-6.71573 -15.3571421,-15 0,-8.28427 6.8756265,-15 15.3571421,-15 8.4815159,0 15.3571429,6.71573 15.3571429,15 z"
         sodipodi:ry="15"
         sodipodi:rx="15.357142"
         sodipodi:cy="300.21933"
         sodipodi:cx="4.6428571"
         id="path3761-6"
         style="fill:#ffffff;fill-opacity:1;stroke:none"
         sodipodi:type="arc" />
      <path
         transform="matrix(0.5519035,0,0,0.5519035,-275.23818,193.85088)"
         d="m 20,300.21933 c 0,8.28427 -6.875627,15 -15.3571429,15 -8.4815156,0 -15.3571421,-6.71573 -15.3571421,-15 0,-8.28427 6.8756265,-15 15.3571421,-15 8.4815159,0 15.3571429,6.71573 15.3571429,15 z"
         sodipodi:ry="15"
         sodipodi:rx="15.357142"
         sodipodi:cy="300.21933"
         sodipodi:cx="4.6428571"
         id="path3761-8-3"
         style="fill:#ffffff;fill-opacity:1;stroke:none"
         sodipodi:type="arc" />
      <path
         inkscape:connector-curvature="0"
         id="path3822-8"
         d="m -284.08973,361.47464 c 0,0 2.97955,-8.67277 13.11001,-8.67277 10.13046,0 10.13046,9.06698 10.13046,9.06698 l 0,-15.76867 c 0,0 -7.15091,-6.30747 -14.59978,-5.12481 -7.44887,1.18265 -11.02432,8.67277 -11.02432,8.67277 z"
         style="fill:#ffccaa;fill-opacity:1;stroke:none" />
      <path
         inkscape:connector-curvature="0"
         id="path3822-0-6"
         d="m -261.52319,358.01129 c 0,0 4.36545,-8.06458 14.35794,-6.39833 9.99248,1.66625 8.50115,10.60974 8.50115,10.60974 l 2.59361,-15.55391 c 0,0 -6.01606,-7.39773 -13.558,-7.45637 -7.54194,-0.0586 -12.30066,6.74138 -12.30066,6.74138 z"
         style="fill:#ffccaa;fill-opacity:1;stroke:none" />
      <path
         transform="matrix(0.44392238,0,0,0.45155741,-289.05153,186.78228)"
         d="m 48.487322,385.15643 c 0,6.13681 -5.200998,11.11168 -11.616755,11.11168 -6.415756,0 -11.616754,-4.97487 -11.616754,-11.11168 0,-6.13681 5.200998,-11.11168 11.616754,-11.11168 6.415757,0 11.616755,4.97487 11.616755,11.11168 z"
         sodipodi:ry="11.111678"
         sodipodi:rx="11.616755"
         sodipodi:cy="385.15643"
         sodipodi:cx="36.870567"
         id="path3842-02"
         style="fill:#aad400;fill-opacity:1;stroke:none"
         sodipodi:type="arc" />
      <path
         transform="matrix(0.25195595,0,0,0.26340849,-282.113,259.38842)"
         d="m 48.487322,385.15643 c 0,6.13681 -5.200998,11.11168 -11.616755,11.11168 -6.415756,0 -11.616754,-4.97487 -11.616754,-11.11168 0,-6.13681 5.200998,-11.11168 11.616754,-11.11168 6.415757,0 11.616755,4.97487 11.616755,11.11168 z"
         sodipodi:ry="11.111678"
         sodipodi:rx="11.616755"
         sodipodi:cy="385.15643"
         sodipodi:cx="36.870567"
         id="path3842-2-6"
         style="fill:#00222b;fill-opacity:1;stroke:none"
         sodipodi:type="arc" />
      <path
         transform="matrix(0.44392238,0,0,0.45155741,-265.21811,185.10976)"
         d="m 48.487322,385.15643 c 0,6.13681 -5.200998,11.11168 -11.616755,11.11168 -6.415756,0 -11.616754,-4.97487 -11.616754,-11.11168 0,-6.13681 5.200998,-11.11168 11.616754,-11.11168 6.415757,0 11.616755,4.97487 11.616755,11.11168 z"
         sodipodi:ry="11.111678"
         sodipodi:rx="11.616755"
         sodipodi:cy="385.15643"
         sodipodi:cx="36.870567"
         id="path3842-0-9"
         style="fill:#aad400;fill-opacity:1;stroke:none"
         sodipodi:type="arc" />
      <path
         transform="matrix(0.25195595,0,0,0.26340849,-258.27958,257.7159)"
         d="m 48.487322,385.15643 c 0,6.13681 -5.200998,11.11168 -11.616755,11.11168 -6.415756,0 -11.616754,-4.97487 -11.616754,-11.11168 0,-6.13681 5.200998,-11.11168 11.616754,-11.11168 6.415757,0 11.616755,4.97487 11.616755,11.11168 z"
         sodipodi:ry="11.111678"
         sodipodi:rx="11.616755"
         sodipodi:cy="385.15643"
         sodipodi:cx="36.870567"
         id="path3842-2-4-0"
         style="fill:#00222b;fill-opacity:1;stroke:none"
         sodipodi:type="arc" />
      <path
         sodipodi:nodetypes="cccc"
         inkscape:connector-curvature="0"
         id="path3902-21"
         d="m -267.41615,346.70666 -9.71976,-1.82511 -8.17737,5.45775 z"
         style="fill:#241f1c;fill-opacity:1;stroke:none" />
      <path
         sodipodi:nodetypes="cccc"
         inkscape:connector-curvature="0"
         id="path3902-2-2"
         d="m -246.7509,345.92183 -10.26634,3.05097 19.9435,1.36373 z"
         style="fill:#241f1c;fill-opacity:1;stroke:none" />
      <path
         sodipodi:nodetypes="cc"
         inkscape:connector-curvature="0"
         id="path3922-1"
         d="m -252.10263,395.04861 c -5.13302,1.18496 -8.56211,1.57918 -13.83041,-0.0392"
         style="fill:#ffccaa;fill-opacity:0;stroke:#d65e52;stroke-width:3.65028977;stroke-linecap:butt;stroke-linejoin:miter;stroke-miterlimit:4;stroke-opacity:1;stroke-dasharray:none" />
      <path
         inkscape:connector-curvature="0"
         id="path4101"
         d="m -300.19336,357.0321 c -0.59132,1.97109 -1.37975,4.92771 0.19711,5.32193 1.57687,0.39422 10.64386,-22.07614 14.58603,-23.06168 3.94216,-0.98554 32.71999,-6.11036 38.23902,-4.53349 5.51904,1.57686 23.85012,11.23517 24.44144,14.1918 0.59133,2.95663 -0.39421,14.58602 0,15.57156 0.39422,0.98554 4.5335,-0.98554 4.5335,-3.15373 0,-2.16819 0.1971,-15.37446 -1.18266,-16.75421 -1.37975,-1.37976 -26.60963,-15.17734 -28.97493,-15.57156 -2.3653,-0.39422 -16.35999,1.37975 -19.11951,1.37975 -2.75952,0 -23.85012,5.71615 -25.03277,7.68723 -1.18265,1.97108 -7.68723,18.9224 -7.68723,18.9224 z"
         style="fill:#808080;fill-opacity:1;stroke:none" />
      <path
         transform="matrix(-0.71611554,-0.21590643,-0.24288745,0.98453331,33.1609,165.49662)"
         d="m 325.00001,237.71933 c 0,4.93111 -8.63451,8.92857 -19.28572,8.92857 -10.6512,0 -19.28571,-3.99746 -19.28571,-8.92857 0,-4.93111 8.63451,-8.92857 19.28571,-8.92857 10.65121,0 19.28572,3.99746 19.28572,8.92857 z"
         sodipodi:ry="8.9285717"
         sodipodi:rx="19.285715"
         sodipodi:cy="237.71933"
         sodipodi:cx="305.71429"
         id="path3981"
         style="fill:#808080;fill-opacity:1;stroke:none"
         sodipodi:type="arc" />
      <path
         sodipodi:type="arc"
         style="fill:#808080;fill-opacity:1;stroke:none"
         id="path4093"
         sodipodi:cx="305.71429"
         sodipodi:cy="237.71933"
         sodipodi:rx="19.285715"
         sodipodi:ry="8.9285717"
         d="m 325.00001,237.71933 c 0,4.93111 -8.63451,8.92857 -19.28572,8.92857 -10.6512,0 -19.28571,-3.99746 -19.28571,-8.92857 0,-4.93111 8.63451,-8.92857 19.28571,-8.92857 10.65121,0 19.28572,3.99746 19.28572,8.92857 z"
         transform="matrix(0.72906955,-0.21590643,0.24728111,0.98453331,-555.6967,165.97618)" />
      <path
         sodipodi:type="arc"
         style="fill:#454837;fill-opacity:1;stroke:none"
         id="path4097"
         sodipodi:cx="305.71429"
         sodipodi:cy="237.71933"
         sodipodi:rx="19.285715"
         sodipodi:ry="8.9285717"
         d="m 325.00001,237.71933 c 0,4.93111 -8.63451,8.92857 -19.28572,8.92857 -10.6512,0 -19.28571,-3.99746 -19.28571,-8.92857 0,-4.93111 8.63451,-8.92857 19.28571,-8.92857 10.65121,0 19.28572,3.99746 19.28572,8.92857 z"
         transform="matrix(-0.57504697,-0.16275445,-0.19504072,0.74216031,-20.950865,206.83424)" />
      <path
         transform="matrix(0.56887762,-0.17591058,0.2242435,0.68346455,-501.48077,225.25001)"
         d="m 325.00001,237.71933 c 0,4.93111 -8.63451,8.92857 -19.28572,8.92857 -10.6512,0 -19.28571,-3.99746 -19.28571,-8.92857 0,-4.93111 8.63451,-8.92857 19.28571,-8.92857 10.65121,0 19.28572,3.99746 19.28572,8.92857 z"
         sodipodi:ry="8.9285717"
         sodipodi:rx="19.285715"
         sodipodi:cy="237.71933"
         sodipodi:cx="305.71429"
         id="path4099"
         style="fill:#454837;fill-opacity:1;stroke:none"
         sodipodi:type="arc" />
      <path
         sodipodi:type="arc"
         style="opacity:0.32758627;fill:#b7c8be;fill-opacity:1;stroke:none"
         id="path4095"
         sodipodi:cx="305.71429"
         sodipodi:cy="237.71933"
         sodipodi:rx="19.285715"
         sodipodi:ry="8.9285717"
         d="m 325.00001,237.71933 c 0,4.93111 -8.63451,8.92857 -19.28572,8.92857 -10.6512,0 -19.28571,-3.99746 -19.28571,-8.92857 0,-4.93111 8.63451,-8.92857 19.28571,-8.92857 10.65121,0 19.28572,3.99746 19.28572,8.92857 z"
         transform="matrix(0.43877982,-0.11843377,0.14882251,0.54005806,-443.69429,241.69654)" />
      <path
         sodipodi:type="arc"
         style="opacity:0.32758627;fill:#b7c8be;fill-opacity:1;stroke:none"
         id="path4105"
         sodipodi:cx="305.71429"
         sodipodi:cy="237.71933"
         sodipodi:rx="19.285715"
         sodipodi:ry="8.9285717"
         d="m 325.00001,237.71933 c 0,4.93111 -8.63451,8.92857 -19.28572,8.92857 -10.6512,0 -19.28571,-3.99746 -19.28571,-8.92857 0,-4.93111 8.63451,-8.92857 19.28571,-8.92857 10.65121,0 19.28572,3.99746 19.28572,8.92857 z"
         transform="matrix(0.43288196,0.13844674,-0.1678384,0.53445403,-335.6688,164.10246)" />
      <path
         style="fill:#ffccaa;fill-opacity:1;stroke:none"
         d="m -283.06505,364.99775 c 0,0 3.68229,2.75908 13.56103,0.51479 9.87873,-2.24428 9.06665,-5.81885 9.06665,-5.81885 l 1.41231,6.21664 c 0,0 -6.40829,4.07085 -13.778,5.25481 -7.36969,1.18396 -11.52715,-0.97684 -11.52715,-0.97684 z"
         id="path4137"
         inkscape:connector-curvature="0" />
      <path
         inkscape:connector-curvature="0"
         id="path4139"
         d="m -238.54921,361.47072 c 0,0 -2.46586,3.50628 -10.84982,3.50628 -8.38395,0 -8.38395,-3.66566 -8.38395,-3.66566 l 0,6.37505 c 0,0 5.91808,2.55002 12.08275,2.07189 6.16468,-0.47812 9.12371,-3.50627 9.12371,-3.50627 z"
         style="fill:#ffccaa;fill-opacity:1;stroke:none" />
    </g>
  </g>
</svg>
