<?xml version="1.0" encoding="UTF-8" standalone="no"?>
<!-- Created with Inkscape (http://www.inkscape.org/) -->

<svg
   xmlns:dc="http://purl.org/dc/elements/1.1/"
   xmlns:cc="http://creativecommons.org/ns#"
   xmlns:rdf="http://www.w3.org/1999/02/22-rdf-syntax-ns#"
   xmlns:svg="http://www.w3.org/2000/svg"
   xmlns="http://www.w3.org/2000/svg"
   xmlns:sodipodi="http://sodipodi.sourceforge.net/DTD/sodipodi-0.dtd"
   xmlns:inkscape="http://www.inkscape.org/namespaces/inkscape"
   width="64px"
   height="64px"
   id="svg3415"
   version="1.1"
   inkscape:version="0.48.2 r9819"
   sodipodi:docname="head_1.svg">
  <defs
     id="defs3417" />
  <sodipodi:namedview
     id="base"
     pagecolor="#ffffff"
     bordercolor="#666666"
     borderopacity="1.0"
     inkscape:pageopacity="0.0"
     inkscape:pageshadow="2"
     inkscape:zoom="2.75"
     inkscape:cx="32"
     inkscape:cy="32"
     inkscape:current-layer="layer1"
     showgrid="true"
     inkscape:document-units="px"
     inkscape:grid-bbox="true"
     inkscape:window-width="1366"
     inkscape:window-height="746"
     inkscape:window-x="1358"
     inkscape:window-y="-8"
     inkscape:window-maximized="0" />
  <metadata
     id="metadata3420">
    <rdf:RDF>
      <cc:Work
         rdf:about="">
        <dc:format>image/svg+xml</dc:format>
        <dc:type
           rdf:resource="http://purl.org/dc/dcmitype/StillImage" />
        <dc:title></dc:title>
      </cc:Work>
    </rdf:RDF>
  </metadata>
  <g
     id="layer1"
     inkscape:label="Layer 1"
     inkscape:groupmode="layer">
    <g
       id="g3337"
       transform="matrix(0.47353685,0,0,0.47353685,167.80505,-56.134607)">
      <path
         sodipodi:nodetypes="csssc"
         inkscape:connector-curvature="0"
         id="path3755"
         d="m -279.26199,240.65942 c 30.35469,-5.12482 33.11421,-39.42168 33.11421,-53.61349 0,-14.1918 -7.09591,-35.47951 -33.90265,-37.05637 -26.80674,-1.57687 -38.63325,20.49927 -38.63325,35.4795 0,14.98024 3.15374,55.19035 39.42169,55.19036 z"
         style="fill:#ffccaa;stroke:none" />
      <path
         inkscape:connector-curvature="0"
         id="path3757"
         d="m -316.71259,208.72786 c 0,0 -6.30747,-27.9894 -5.91325,-31.53735 0.39421,-3.54795 -2.3653,-23.25879 -2.3653,-23.25879 l 5.91325,10.24964 1.57687,-20.89349 5.12482,9.06698 5.12481,-25.22987 5.12482,16.55711 9.4612,-5.91326 -1.57686,7.0959 12.61493,-9.4612 -1.57686,9.85542 14.1918,-4.7306 -1.97108,7.0959 24.83566,-5.12481 -8.67277,9.4612 12.61493,-1.97108 -5.91325,5.91324 23.65301,-1.57686 -22.07614,8.27855 10.64385,1.18265 -7.0959,7.49012 -1.57687,26.80674 -3.54795,12.61494 -4.7306,-8.67277 1.57687,-16.95132 -3.94217,4.33638 1.18265,-13.79758 -5.12482,2.75951 0.78844,-9.85542 -3.94217,3.15374 -18.13397,-8.27856 5.12481,7.0959 -14.98023,-5.91324 2.75952,5.91324 -19.31663,-2.75951 3.54795,4.7306 -9.85542,0 2.75952,17.34554 -4.33639,-5.91325 3.54795,16.95132 -3.54795,-1.57687 5.12482,13.79759 z"
         style="fill:#483e37;stroke:none" />
      <path
         inkscape:connector-curvature="0"
         id="path3759"
         d="m -288.32898,229.62134 3.54795,4.73061 2.75952,-5.12482 2.3653,2.75952 3.15374,-3.15374 2.36529,2.75952 1.97109,-2.3653 -0.78843,16.5571 -3.54795,-2.75951 -2.36531,3.15373 -1.18265,-2.75952 -3.15373,3.94217 z"
         style="fill:#483e37;fill-opacity:1;stroke:none" />
      <path
         transform="matrix(0.5519035,0,0,0.5519035,-273.74296,22.930701)"
         d="m 20,300.21933 c 0,8.28427 -6.875627,15 -15.3571429,15 -8.4815156,0 -15.3571421,-6.71573 -15.3571421,-15 0,-8.28427 6.8756265,-15 15.3571421,-15 8.4815159,0 15.3571429,6.71573 15.3571429,15 z"
         sodipodi:ry="15"
         sodipodi:rx="15.357142"
         sodipodi:cy="300.21933"
         sodipodi:cx="4.6428571"
         id="path3761"
         style="fill:#ffffff;fill-opacity:1;stroke:none"
         sodipodi:type="arc" />
      <path
         transform="matrix(0.5519035,0,0,0.5519035,-297.59308,24.507571)"
         d="m 20,300.21933 c 0,8.28427 -6.875627,15 -15.3571429,15 -8.4815156,0 -15.3571421,-6.71573 -15.3571421,-15 0,-8.28427 6.8756265,-15 15.3571421,-15 8.4815159,0 15.3571429,6.71573 15.3571429,15 z"
         sodipodi:ry="15"
         sodipodi:rx="15.357142"
         sodipodi:cy="300.21933"
         sodipodi:cx="4.6428571"
         id="path3761-8"
         style="fill:#ffffff;fill-opacity:1;stroke:none"
         sodipodi:type="arc" />
      <path
         inkscape:connector-curvature="0"
         id="path3822"
         d="m -306.44462,193.11687 c 0,0 2.97954,-8.67277 13.11001,-8.67277 10.13045,0 10.13045,9.06699 10.13045,9.06699 l 0,-15.76868 c 0,0 -7.15091,-6.30746 -14.59978,-5.12481 -7.44886,1.18265 -11.02431,8.67277 -11.02431,8.67277 z"
         style="fill:#ffccaa;fill-opacity:1;stroke:none" />
      <path
         transform="matrix(0.44392238,0,0,0.45155741,-311.40642,17.438971)"
         d="m 48.487322,385.15643 c 0,6.13681 -5.200998,11.11168 -11.616755,11.11168 -6.415756,0 -11.616754,-4.97487 -11.616754,-11.11168 0,-6.13681 5.200998,-11.11168 11.616754,-11.11168 6.415757,0 11.616755,4.97487 11.616755,11.11168 z"
         sodipodi:ry="11.111678"
         sodipodi:rx="11.616755"
         sodipodi:cy="385.15643"
         sodipodi:cx="36.870567"
         id="path3842"
         style="fill:#00aad4;fill-opacity:1;stroke:none"
         sodipodi:type="arc" />
      <path
         transform="matrix(0.25195595,0,0,0.26340849,-304.46789,90.045111)"
         d="m 48.487322,385.15643 c 0,6.13681 -5.200998,11.11168 -11.616755,11.11168 -6.415756,0 -11.616754,-4.97487 -11.616754,-11.11168 0,-6.13681 5.200998,-11.11168 11.616754,-11.11168 6.415757,0 11.616755,4.97487 11.616755,11.11168 z"
         sodipodi:ry="11.111678"
         sodipodi:rx="11.616755"
         sodipodi:cy="385.15643"
         sodipodi:cx="36.870567"
         id="path3842-2"
         style="fill:#00222b;fill-opacity:1;stroke:none"
         sodipodi:type="arc" />
      <path
         transform="matrix(0.44392238,0,0,0.45155741,-287.57301,15.766451)"
         d="m 48.487322,385.15643 c 0,6.13681 -5.200998,11.11168 -11.616755,11.11168 -6.415756,0 -11.616754,-4.97487 -11.616754,-11.11168 0,-6.13681 5.200998,-11.11168 11.616754,-11.11168 6.415757,0 11.616755,4.97487 11.616755,11.11168 z"
         sodipodi:ry="11.111678"
         sodipodi:rx="11.616755"
         sodipodi:cy="385.15643"
         sodipodi:cx="36.870567"
         id="path3842-0"
         style="fill:#00aad4;fill-opacity:1;stroke:none"
         sodipodi:type="arc" />
      <path
         transform="matrix(0.25195595,0,0,0.26340849,-280.63448,88.372591)"
         d="m 48.487322,385.15643 c 0,6.13681 -5.200998,11.11168 -11.616755,11.11168 -6.415756,0 -11.616754,-4.97487 -11.616754,-11.11168 0,-6.13681 5.200998,-11.11168 11.616754,-11.11168 6.415757,0 11.616755,4.97487 11.616755,11.11168 z"
         sodipodi:ry="11.111678"
         sodipodi:rx="11.616755"
         sodipodi:cy="385.15643"
         sodipodi:cx="36.870567"
         id="path3842-2-4"
         style="fill:#00222b;fill-opacity:1;stroke:none"
         sodipodi:type="arc" />
      <path
         inkscape:connector-curvature="0"
         id="path3902"
         d="m -289.77105,177.36335 0.92409,5.66501 -18.82121,-2.03237 z"
         style="fill:#483e37;fill-opacity:1;stroke:none" />
      <path
         inkscape:connector-curvature="0"
         id="path3902-2"
         d="m -277.77857,175.39588 -2.382,5.21915 20.53483,-2.18422 z"
         style="fill:#483e37;fill-opacity:1;stroke:none" />
      <path
         inkscape:connector-curvature="0"
         id="path3922"
         d="m -273.15661,219.79205 c -4.73881,0.27875 -16.44645,0.27875 -18.95523,-4.73881"
         style="fill:#ffccaa;fill-opacity:0;stroke:#d65e52;stroke-width:2.98027897;stroke-linecap:butt;stroke-linejoin:miter;stroke-miterlimit:4;stroke-opacity:1;stroke-dasharray:none" />
      <path
         inkscape:connector-curvature="0"
         id="path4107"
         d="m -309.94426,182.6109 c -8.47567,0.39422 -16.75422,0.59133 -16.75422,0.59133 l -0.78843,2.16819 -1.97109,-0.59132 -0.39421,-56.96433 -2.3653,1.77398 0.19711,58.34408 c 0,0 20.69638,-0.1971 21.68192,-0.1971 0.98554,0 3.35084,-5.12483 0.39422,-5.12483 z"
         style="fill:#241f1c;stroke:none" />
      <path
         transform="matrix(0.35121132,0,0,0.39859697,-344.07627,81.603991)"
         d="m 70.357145,260.57648 c 0,1.7752 -1.758881,3.21428 -3.928571,3.21428 -2.16969,0 -3.928572,-1.43908 -3.928572,-3.21428 0,-1.7752 1.758882,-3.21429 3.928572,-3.21429 2.16969,0 3.928571,1.43909 3.928571,3.21429 z"
         sodipodi:ry="3.2142856"
         sodipodi:rx="3.9285715"
         sodipodi:cy="260.57648"
         sodipodi:cx="66.428574"
         id="path4109"
         style="fill:#ff8080;fill-opacity:1;stroke:none"
         sodipodi:type="arc" />
      <path
         sodipodi:type="arc"
         style="fill:#ffcc00;fill-opacity:1;stroke:none"
         id="path4133"
         sodipodi:cx="66.428574"
         sodipodi:cy="260.57648"
         sodipodi:rx="3.9285715"
         sodipodi:ry="3.2142856"
         d="m 70.357145,260.57648 c 0,1.7752 -1.758881,3.21428 -3.928571,3.21428 -2.16969,0 -3.928572,-1.43908 -3.928572,-3.21428 0,-1.7752 1.758882,-3.21429 3.928572,-3.21429 2.16969,0 3.928571,1.43909 3.928571,3.21429 z"
         transform="matrix(0.35121132,0,0,0.39859697,-340.33121,81.603991)" />
      <path
         transform="matrix(0.35121132,0,0,0.39859697,-336.19193,81.603991)"
         d="m 70.357145,260.57648 c 0,1.7752 -1.758881,3.21428 -3.928571,3.21428 -2.16969,0 -3.928572,-1.43908 -3.928572,-3.21428 0,-1.7752 1.758882,-3.21429 3.928572,-3.21429 2.16969,0 3.928571,1.43909 3.928571,3.21429 z"
         sodipodi:ry="3.2142856"
         sodipodi:rx="3.9285715"
         sodipodi:cy="260.57648"
         sodipodi:cx="66.428574"
         id="path4135"
         style="fill:#00ff00;fill-opacity:1;stroke:none"
         sodipodi:type="arc" />
      <path
         style="fill:#483e37;fill-opacity:1;stroke:none"
         d="m -289.77105,177.36335 0.92409,5.66501 -18.82121,-2.03237 z"
         id="path4167"
         inkscape:connector-curvature="0" />
    </g>
  </g>
</svg>
