<?xml version="1.0" encoding="UTF-8" standalone="no"?>
<!-- Created with Inkscape (http://www.inkscape.org/) -->

<svg
   xmlns:dc="http://purl.org/dc/elements/1.1/"
   xmlns:cc="http://creativecommons.org/ns#"
   xmlns:rdf="http://www.w3.org/1999/02/22-rdf-syntax-ns#"
   xmlns:svg="http://www.w3.org/2000/svg"
   xmlns="http://www.w3.org/2000/svg"
   xmlns:sodipodi="http://sodipodi.sourceforge.net/DTD/sodipodi-0.dtd"
   xmlns:inkscape="http://www.inkscape.org/namespaces/inkscape"
   width="64px"
   height="64px"
   id="svg3415"
   version="1.1"
   inkscape:version="0.48.2 r9819"
   sodipodi:docname="pants_2.svg">
  <defs
     id="defs3417" />
  <sodipodi:namedview
     id="base"
     pagecolor="#ffffff"
     bordercolor="#666666"
     borderopacity="1.0"
     inkscape:pageopacity="0.0"
     inkscape:pageshadow="2"
     inkscape:zoom="2.75"
     inkscape:cx="32"
     inkscape:cy="32"
     inkscape:current-layer="layer1"
     showgrid="true"
     inkscape:document-units="px"
     inkscape:grid-bbox="true"
     inkscape:window-width="1366"
     inkscape:window-height="746"
     inkscape:window-x="1358"
     inkscape:window-y="-8"
     inkscape:window-maximized="0" />
  <metadata
     id="metadata3420">
    <rdf:RDF>
      <cc:Work
         rdf:about="">
        <dc:format>image/svg+xml</dc:format>
        <dc:type
           rdf:resource="http://purl.org/dc/dcmitype/StillImage" />
        <dc:title></dc:title>
      </cc:Work>
    </rdf:RDF>
  </metadata>
  <g
     id="layer1"
     inkscape:label="Layer 1"
     inkscape:groupmode="layer">
    <g
       transform="matrix(0.27108871,0,0,0.27108871,229.23355,-118.86915)"
       id="g4049">
      <g
         id="g3373">
        <path
           inkscape:connector-curvature="0"
           id="path4187"
           d="m -764.69402,465.9068 41.78698,11.03807 43.36382,-11.03807 3.94219,13.40337 -6.30748,1.57687 11.03807,68.59372 2.36529,101.70794 -20.49924,3.94214 -30.7489,-7.88433 9.46117,-89.88142 -13.40337,-47.30601 -14.19181,46.51758 4.73064,93.03514 -26.80678,9.46123 -20.49924,-6.30749 1.57684,-102.49635 15.76866,-74.11275 -7.09588,-2.3653 z"
           style="fill:#504416;stroke:none" />
        <path
           style="fill:#241f1c;stroke:none"
           d="m -774.94364,457.23403 c -6.30749,1.57687 -6.30749,11.03807 -6.30749,11.03807 l 10.24962,-2.3653 14.19181,3.94217 -6.30748,16.55711 3.15374,5.51903 -10.24962,33.11421 7.09588,-3.15374 18.9224,-55.97878 -2.36529,-9.4612 -5.51904,0 -1.57684,5.51903 z"
           id="path4199"
           inkscape:connector-curvature="0" />
      </g>
    </g>
  </g>
</svg>
