<?xml version="1.0" encoding="UTF-8" standalone="no"?>
<!-- Created with Inkscape (http://www.inkscape.org/) -->

<svg
   xmlns:dc="http://purl.org/dc/elements/1.1/"
   xmlns:cc="http://creativecommons.org/ns#"
   xmlns:rdf="http://www.w3.org/1999/02/22-rdf-syntax-ns#"
   xmlns:svg="http://www.w3.org/2000/svg"
   xmlns="http://www.w3.org/2000/svg"
   xmlns:sodipodi="http://sodipodi.sourceforge.net/DTD/sodipodi-0.dtd"
   xmlns:inkscape="http://www.inkscape.org/namespaces/inkscape"
   width="64px"
   height="64px"
   id="svg3415"
   version="1.1"
   inkscape:version="0.48.2 r9819"
   sodipodi:docname="fuselage_3.svg">
  <defs
     id="defs3417" />
  <sodipodi:namedview
     id="base"
     pagecolor="#ffffff"
     bordercolor="#666666"
     borderopacity="1.0"
     inkscape:pageopacity="0.0"
     inkscape:pageshadow="2"
     inkscape:zoom="2.75"
     inkscape:cx="32"
     inkscape:cy="30.4502"
     inkscape:current-layer="g3361"
     showgrid="true"
     inkscape:document-units="px"
     inkscape:grid-bbox="true"
     inkscape:window-width="1366"
     inkscape:window-height="746"
     inkscape:window-x="1358"
     inkscape:window-y="-8"
     inkscape:window-maximized="0" />
  <metadata
     id="metadata3420">
    <rdf:RDF>
      <cc:Work
         rdf:about="">
        <dc:format>image/svg+xml</dc:format>
        <dc:type
           rdf:resource="http://purl.org/dc/dcmitype/StillImage" />
        <dc:title></dc:title>
      </cc:Work>
    </rdf:RDF>
  </metadata>
  <g
     id="layer1"
     inkscape:label="Layer 1"
     inkscape:groupmode="layer">
    <g
       id="g3361"
       transform="matrix(0.35207787,0,0,0.35207787,190.14382,-241.5528)">
      <path
         style="fill:#333333;fill-opacity:1;stroke:#000000;stroke-width:1.12227499px;stroke-linecap:butt;stroke-linejoin:miter;stroke-opacity:1"
         d="m -490.78375,699.35491 c -2.26734,13.60399 -11.33669,26.07438 -15.87137,39.67838 -4.53468,13.6041 -11.33668,70.28752 0,99.76296 11.33669,29.47533 21.53971,27.20797 29.4754,-1.13371 7.93568,-28.34173 14.73769,-87.29248 -13.60403,-138.30763 z"
         id="path4553"
         inkscape:connector-curvature="0" />
      <path
         inkscape:connector-curvature="0"
         id="path4555"
         d="m -411.15681,697.08758 c 2.14833,13.60399 10.74167,26.07438 15.03833,39.67837 4.29667,13.60411 10.74167,70.28752 0,99.76297 -10.74167,29.4753 -20.40917,27.20801 -27.92833,-1.1337 -7.51917,-28.34175 -13.96416,-87.29249 12.89,-138.30764 z"
         style="fill:#333333;fill-opacity:1;stroke:#000000;stroke-width:1.09242582px;stroke-linecap:butt;stroke-linejoin:miter;stroke-opacity:1" />
      <rect
         ry="0.24134432"
         rx="0.4548901"
         y="761.6156"
         x="-503.254"
         height="7.9356833"
         width="94.094513"
         id="rect4577"
         style="fill:#333333;fill-opacity:1;stroke:none" />
      <rect
         ry="0.24134432"
         rx="0.4548901"
         y="791.22784"
         x="-508.92239"
         height="6.8020134"
         width="112.23322"
         id="rect4579"
         style="fill:#333333;fill-opacity:1;stroke:none" />
      <path
         inkscape:connector-curvature="0"
         id="path4585"
         d="m -483.65048,713.5673 c -1.84404,11.06416 -9.22015,21.20639 -12.90822,32.27056 -3.68805,11.06418 -9.22014,57.16487 0,81.13725 9.22015,23.97245 17.51829,22.12843 23.97239,-0.92195 6.45411,-23.05043 11.98619,-70.99514 -11.06417,-112.48586 z"
         style="fill:#7c916f;fill-opacity:1;stroke:#000000;stroke-width:0.9127481px;stroke-linecap:butt;stroke-linejoin:miter;stroke-opacity:1" />
      <path
         style="fill:#7c916f;fill-opacity:1;stroke:#000000;stroke-width:0.88847178px;stroke-linecap:butt;stroke-linejoin:miter;stroke-opacity:1"
         d="m -416.64521,711.72328 c 1.74724,11.06418 8.7362,21.2064 12.23069,32.27057 3.49449,11.06417 8.73622,57.16488 0,81.13724 -8.73621,23.97245 -16.59881,22.12836 -22.71415,-0.92195 -6.11535,-23.05041 -11.35707,-70.99524 10.48346,-112.48586 z"
         id="path4587"
         inkscape:connector-curvature="0" />
    </g>
  </g>
</svg>
