<?xml version="1.0" encoding="UTF-8" standalone="no"?>
<!-- Created with Inkscape (http://www.inkscape.org/) -->

<svg
   xmlns:dc="http://purl.org/dc/elements/1.1/"
   xmlns:cc="http://creativecommons.org/ns#"
   xmlns:rdf="http://www.w3.org/1999/02/22-rdf-syntax-ns#"
   xmlns:svg="http://www.w3.org/2000/svg"
   xmlns="http://www.w3.org/2000/svg"
   xmlns:sodipodi="http://sodipodi.sourceforge.net/DTD/sodipodi-0.dtd"
   xmlns:inkscape="http://www.inkscape.org/namespaces/inkscape"
   width="64px"
   height="64px"
   id="svg3415"
   version="1.1"
   inkscape:version="0.48.2 r9819"
   sodipodi:docname="powertrain_2.svg">
  <defs
     id="defs3417" />
  <sodipodi:namedview
     id="base"
     pagecolor="#ffffff"
     bordercolor="#666666"
     borderopacity="1.0"
     inkscape:pageopacity="0.0"
     inkscape:pageshadow="2"
     inkscape:zoom="2.75"
     inkscape:cx="32"
     inkscape:cy="30.4502"
     inkscape:current-layer="g3361"
     showgrid="true"
     inkscape:document-units="px"
     inkscape:grid-bbox="true"
     inkscape:window-width="1366"
     inkscape:window-height="746"
     inkscape:window-x="1358"
     inkscape:window-y="-8"
     inkscape:window-maximized="0" />
  <metadata
     id="metadata3420">
    <rdf:RDF>
      <cc:Work
         rdf:about="">
        <dc:format>image/svg+xml</dc:format>
        <dc:type
           rdf:resource="http://purl.org/dc/dcmitype/StillImage" />
        <dc:title></dc:title>
      </cc:Work>
    </rdf:RDF>
  </metadata>
  <g
     id="layer1"
     inkscape:label="Layer 1"
     inkscape:groupmode="layer">
    <g
       id="g3361"
       transform="matrix(0.35207787,0,0,0.35207787,190.14382,-241.5528)">
      <path
         style="fill:#333333;fill-opacity:1;stroke:#000000;stroke-width:0.91112971px;stroke-linecap:butt;stroke-linejoin:miter;stroke-opacity:1"
         d="m -508.50194,734.11286 23.92988,-0.92042 2.76114,11.04453 11.96494,0 0,57.98399 -9.2038,0.9204 -17.48722,17.4872 -12.88532,-18.4076 -11.96494,0 0.92038,-59.82474 8.28341,0 z"
         id="path4529"
         inkscape:connector-curvature="0" />
      <path
         inkscape:connector-curvature="0"
         id="path4531"
         d="m -410.02129,733.19244 23.92989,-0.92033 2.76114,11.04453 11.96494,0 0,57.98392 -9.2038,0.9204 -17.48722,17.4873 -12.88533,-18.4077 -11.96493,0 0.92037,-59.82467 8.28342,0 z"
         style="fill:#333333;fill-opacity:1;stroke:#000000;stroke-width:0.91112971px;stroke-linecap:butt;stroke-linejoin:miter;stroke-opacity:1" />
      <rect
         style="fill:#333333;fill-opacity:1;stroke:none"
         id="rect4569"
         width="76.391541"
         height="6.4426603"
         x="-481.81088"
         y="757.0484"
         rx="0.36930686"
         ry="0.19593769" />
      <rect
         style="fill:#333333;fill-opacity:1;stroke:none"
         id="rect4571"
         width="91.117615"
         height="5.5222797"
         x="-486.41281"
         y="781.08929"
         rx="0.36930686"
         ry="0.19593769" />
      <path
         inkscape:connector-curvature="0"
         id="path4581"
         d="m -505.86819,741.89901 18.74864,-0.72107 2.16332,8.65328 9.37431,0 0,45.42934 -7.21101,0.7211 -13.70094,13.7009 -10.09542,-14.422 -9.37433,0 0.72111,-46.87157 6.48991,0 z"
         style="fill:#917c6f;fill-opacity:1;stroke:#000000;stroke-width:0.71385443px;stroke-linecap:butt;stroke-linejoin:miter;stroke-opacity:1" />
      <path
         style="fill:#917c6f;fill-opacity:1;stroke:#000000;stroke-width:0.71385443px;stroke-linecap:butt;stroke-linejoin:miter;stroke-opacity:1"
         d="m -406.62118,742.09837 18.74866,-0.72116 2.1633,8.65327 9.37432,0 0,45.42938 -7.21102,0.7211 -13.70093,13.701 -10.09543,-14.4221 -9.37433,0 0.72111,-46.87161 6.48991,0 z"
         id="path4583"
         inkscape:connector-curvature="0" />
    </g>
  </g>
</svg>
